<?xml version="1.0" encoding="UTF-8" standalone="no"?>
<!-- Created with Inkscape (http://www.inkscape.org/) -->

<svg
   xmlns:dc="http://purl.org/dc/elements/1.1/"
   xmlns:cc="http://creativecommons.org/ns#"
   xmlns:rdf="http://www.w3.org/1999/02/22-rdf-syntax-ns#"
   xmlns:svg="http://www.w3.org/2000/svg"
   xmlns="http://www.w3.org/2000/svg"
   xmlns:sodipodi="http://sodipodi.sourceforge.net/DTD/sodipodi-0.dtd"
   xmlns:inkscape="http://www.inkscape.org/namespaces/inkscape"
   version="1.1"
   id="svg2"
   width="1172.6334"
   height="1174.4163"
   viewBox="0 0 1172.6334 1174.4162"
   sodipodi:docname="fcbk.svg"
   inkscape:version="0.92.3 (2405546, 2018-03-11)"
   inkscape:export-filename="C:\Users\WINDOWS\Desktop\facebur4.png"
   inkscape:export-xdpi="96"
   inkscape:export-ydpi="96">
  <metadata
     id="metadata8">
    <rdf:RDF>
      <cc:Work
         rdf:about="">
        <dc:format>image/svg+xml</dc:format>
        <dc:type
           rdf:resource="http://purl.org/dc/dcmitype/StillImage" />
        <dc:title />
      </cc:Work>
    </rdf:RDF>
  </metadata>
  <defs
     id="defs6" />
  <sodipodi:namedview
     pagecolor="#ffffff"
     bordercolor="#666666"
     borderopacity="1"
     objecttolerance="10"
     gridtolerance="10"
     guidetolerance="10"
     inkscape:pageopacity="0"
     inkscape:pageshadow="2"
     inkscape:window-width="1280"
     inkscape:window-height="658"
     id="namedview4"
     showgrid="false"
     showguides="true"
     inkscape:guide-bbox="true"
     inkscape:zoom="0.36887729"
     inkscape:cx="231.45598"
     inkscape:cy="585.36719"
     inkscape:window-x="-8"
     inkscape:window-y="-8"
     inkscape:window-maximized="1"
     inkscape:current-layer="layer1"
     fit-margin-top="0"
     fit-margin-left="0"
     fit-margin-right="0"
     fit-margin-bottom="0" />
  <g
     inkscape:groupmode="layer"
     id="layer1"
     inkscape:label="Fondo"
     transform="translate(-587.34663,-518.68098)"
     style="display:none"
     sodipodi:insensitive="true">
    <path
       style="fill:#ffff00;stroke:none;stroke-width:1px;stroke-linecap:butt;stroke-linejoin:miter;stroke-opacity:1"
       d="M 463.06748,444.908 V 1770.5521 H 1852.2699 V 444.908 Z"
       id="path830"
       inkscape:connector-curvature="0" />
  </g>
  <g
     inkscape:groupmode="layer"
     id="layer2"
     inkscape:label="Cuerpo"
     style="display:inline"
     transform="translate(-587.34663,-518.68098)">
    <path
       style="fill:#ffffff;stroke:none;stroke-width:1px;stroke-linecap:butt;stroke-linejoin:miter;stroke-opacity:1"
       d="m 1313.7654,525.82854 c 6.4555,3.01299 10.8886,1.98108 15.2483,0.80255 6.0666,4.88662 15.0988,4.68946 24.8789,3.21018 5.7926,1.4693 11.5832,2.91423 16.8534,-2.40764 4.0981,9.06951 67.5117,0.0865 104.3308,-0.80254 5.8756,5.10703 15.0916,1.86314 24.0763,-0.80255 1.2189,8.63084 5.9343,2.5765 9.6306,0.80255 2.9859,1.92376 6.1124,3.14494 9.6305,2.40763 4.9346,9.67075 9.2117,2.90387 13.6433,0 8.0813,1.05799 16.2671,1.59377 24.8788,0 3.7452,1.4335 7.4905,2.75487 11.2357,0 0.8385,5.49183 4.3865,1.5008 7.2229,0 5.7646,5.77159 12.1955,9.63961 21.6687,4.81527 26.6554,4.89696 116.1577,7.65385 125.1969,77.04427 -5.9102,-1.02209 -13.1426,1.83089 -19.2611,13.64326 13.032,7.21309 25.1007,15.99138 29.6942,36.91704 2.8667,3.96107 3.5435,11.57186 3.2102,20.86616 -10.86,-2.04676 -4.6362,5.01777 0,11.23563 -3.567,7.81729 -7.3406,15.46233 1.6051,33.70686 -7.9141,7.59275 -12.5116,14.01491 -2.4077,15.24835 -6.652,1.52717 -3.0454,9.46604 -1.6051,16.05089 -7.9209,2.21571 -2.0519,5.58057 2.4077,8.82799 -4.0376,3.63323 -8.745,7.13251 -2.4077,12.84071 -3.5144,2.94266 -10.5008,5.88533 -4.0127,8.82799 0.3961,11.30165 -1.5435,22.21399 4.8153,34.50942 l -0.8026,3.21017 -10.433,-3.21017 2.4076,15.24834 4.8153,-17.65598 2.4076,4.81527 -4.0127,18.45852 8.0254,-9.63053 v 6.01909 l -8.0254,10.83434 v 6.42036 l 5.6178,-3.21018 2.0063,5.21654 -4.414,5.21654 8.828,10.03181 -4.8152,5.21654 3.2101,18.45852 -6.4203,0.80254 7.6242,13.24199 -12.4395,-4.414 -1.6051,14.84708 13.6433,2.8089 0.8025,7.62418 -5.6178,1.60509 c 0.5594,2.82377 -4.47,7.61937 5.2166,7.2229 l 3.2101,7.2229 -13.2419,1.20381 14.0445,2.00636 c -5.0642,4.68617 -8.044,9.89341 -8.828,15.64962 7.6581,2.78159 6.5199,4.71035 10.4331,10.03181 l -10.0318,4.01272 18.8598,-0.80254 -1.2039,6.01908 -6.019,1.60509 c -7.0839,4.47623 -6.0605,6.68482 3.6114,20.06363 l -11.2356,2.0063 c -3.7727,9.9279 3.9821,7.3675 12.8407,3.6115 l -11.6369,14.8471 13.242,-7.2229 c -3.0498,7.1044 -7.6858,13.3023 -3.6115,24.4776 l -11.2356,-0.4013 c 6.6565,8.1903 6.5682,17.6513 20.4649,24.4776 l -11.2356,4.8153 8.828,9.2292 -15.6496,1.2039 11.6368,4.4139 c -2.8764,4.1867 -0.3149,7.2859 2.0064,10.4331 h -6.8216 c 1.0025,6.0191 -0.037,12.0382 8.0254,18.0573 l -5.6178,4.8152 c 6.2225,-0.1649 7.8887,6.9603 8.828,15.2484 -3.8113,-2.706 -8.2335,-7.5498 -10.0318,-3.2102 -0.9211,2.6031 -0.099,5.7042 6.4204,10.4331 l -6.0191,1.2038 4.414,6.4204 -10.4331,-2.4077 5.6178,7.2229 c -3.9175,12.6751 -5.0122,27.4694 -0.4013,46.5476 -5.1608,2.818 -14.9882,4.1776 -4.0127,12.0382 0.695,2.6903 4.6718,3.5574 -3.6114,11.2356 l 6.8216,2.4076 -6.0191,6.8217 7.2229,2.0063 c -6.5989,4.6017 -3.5471,6.556 -7.2229,9.2293 -0.4621,3.4199 -1.4216,6.7777 6.4204,11.2356 -9.256,1.2937 -8.493,4.7342 -2.809,9.2293 -0.3983,11.1002 -0.4109,21.7052 -4.0127,36.917 -6.1566,2.214 -1.9177,5.5831 1.2038,8.828 0.1157,6.5239 -0.6154,11.6366 1.6051,21.6687 -1.5396,2.6437 -5.8314,3.0354 0.4013,12.0382 -6.2616,4.4992 -5.0612,10.4909 0,17.2547 -1.7433,9.6184 -3.2393,19.9167 -2.0064,37.7196 -1.1435,2.9427 -0.4175,5.8853 5.2166,8.828 l -5.2166,3.6114 c 0.5678,5.3301 0.8632,10.6057 4.0128,16.4522 -7.4898,0.4631 -7.1978,2.1234 -8.0255,3.6114 l -14.8471,-2.0063 8.828,7.2229 -0.8025,-10.0318 9.6305,-0.8026 -0.4012,9.6306 c -0.19,3.3474 4.5363,0.5493 8.4267,-1.2039 -2.624,2.6339 -7.8806,3.9514 -7.6242,8.0255 -1.0701,2.6751 1.3376,4.5477 7.2229,5.6178 l -10.4331,1.2038 c 0.9114,3.0764 3.5028,6.1529 7.6242,9.2293 -4.6945,0.6127 -6.2134,2.6785 -8.0255,6.0191 0.9062,2.9709 3.5173,5.184 9.2293,6.019 -6.0479,4.3827 -9.576,9.9414 -7.6242,18.0573 0.5369,1.3376 3.6131,2.6751 8.4268,4.0127 l -12.0382,3.2102 c 1.2746,5.9483 1.3882,13.0576 7.2229,14.4458 0.9786,16.7784 2.1362,33.6164 0,49.3565 -2.4522,10.9458 -3.6646,22.5116 -0.8026,36.1145 -1.609,-2.2661 -2.5338,-5.9005 -5.6178,-5.2166 -2.5145,1.244 -4.4311,2.6374 -4.8152,4.414 l 4.0127,9.6306 -2.0064,6.8216 c -4.2128,1.7793 -9.6861,2.8023 -8.828,7.6242 -2.3573,2.7922 -6.954,5.4121 4.0128,9.2292 -5.3703,0.086 -9.6872,0.7474 -9.2293,4.0128 l 4.8153,4.0127 c -5.4887,0.093 -11.9153,5.3431 -18.4586,11.2356 4.0272,-7.4483 6.2062,-13.5017 3.2102,-15.6496 -4.1912,5.2252 -9.1942,8.6644 -16.0509,8.0254 1.2694,3.9463 4.7612,7.1518 9.2293,10.0318 -28.863,9.5323 -58.4848,15.4605 -89.4837,14.8471 -12.546,-1.7298 -24.3707,-3.2191 -35.312,-4.414 -3.6408,-4.72 -10.0154,-0.555 -15.6496,1.2038 -11.9265,-2.5797 -18.7574,-1.9168 -24.8789,-0.8025 -26.7295,-6.065 -51.5152,-4.3547 -75.0379,2.4076 -4.68,-3.7983 -9.7746,-5.2475 -16.0509,0 -4.6815,0.1337 -10.4969,-5.402 -14.0445,0.4013 -2.6847,-5.1713 -6.4108,-5.3954 -11.2356,-0.4013 -7.8917,-2.9426 -13.9108,-3.7452 -18.0573,-2.4076 2.3882,9.1179 4.0756,18.0313 2.8089,26.0827 -3.401,3.0262 -14.6286,-3.4513 -25.2801,-9.2293 0.7683,-4.5757 0.4283,-9.3362 -2.0064,-14.4458 -11.7098,-8.1683 -19.4303,-11.0157 -28.4903,-15.6496 h 14.0445 c -2.6891,-8.3809 -23.5394,-11.8008 -18.0572,-45.745 l 6.8459,2.8575 c -5.0779,-6.6221 -6.65,-11.7417 -6.4447,-16.0995 2.1114,-4.35 1.2221,-15.9874 0.8026,-26.484 2.3703,-2.4557 2.1463,-6.1088 -0.4013,-10.8343 1.9492,-5.7944 0.5546,-14.0967 -0.4013,-22.07 3.8157,-10.8344 2.8988,-21.6687 -1.605,-32.5031 5.6645,-11.5819 2.8342,-35.1981 -0.4013,-59.3883 2.9744,-9.1065 1.8833,-21.6977 -0.4013,-35.3119 l 6.8216,0.8025 c -6.1003,-9.4183 -4.9833,-15.9095 -6.019,-23.2738 3.7214,-17.5638 -0.8308,-41.1448 -5.2166,-64.6048 2.2091,-1.676 1.3387,-7.3552 -4.0127,-18.8598 6.1861,2.7398 6.7216,0.1821 0.8025,-8.4267 2.9993,-0.1481 7.5659,1.1592 0.4013,-8.4267 4.3436,-3.9846 -2.5565,-9.0871 2.0064,-28.4904 3.6987,-8.1697 3.5928,-19.383 3.6114,-30.4967 4.2577,-0.5761 10.0139,0.097 10.0318,-4.0127 l -3.6114,-5.2165 -6.0191,5.2165 c -3.1974,-3.697 -6.1082,-7.5988 -14.4458,-7.6242 2.0958,-4.9915 -0.7327,-9.3116 -6.4204,-13.2419 4.0429,-0.6417 6.2127,-3.5579 2.8089,-13.242 2.9726,1.0411 6.299,3.3204 7.2229,-2.8089 1.8906,3.3439 2.4952,6.6879 6.8217,10.0318 2.7328,-1.0313 4.4239,-3.7294 9.6305,-0.8026 l 6.8216,-8.828 0.4013,8.4268 c 23.5838,0.7958 21.7571,-6.1075 44.5412,-2.4077 4.163,-0.7695 8.3904,-1.4103 12.0382,-3.2101 12.8407,4.2129 25.6814,4.0456 38.5221,2.4076 l -0.8025,10.0318 c 6.0826,-12.9849 10.6909,-27.1165 11.975,-43.8335 1.1691,-1.3101 1.4583,-3.7935 -0.5675,-9.3635 l 3.6886,2.5537 1.9862,-16.7408 c 2.3331,-6.9626 4.1259,-14.7357 5.3889,-23.3034 2.4713,-1.273 1.6173,-4.9212 0.4013,-8.828 l 4.0127,1.2038 c 0.6401,-4.007 0.028,-7.7636 -2.0063,-11.2356 4.0205,-0.9881 4.0022,-4.861 4.414,-8.4268 l -2.0064,-3.6114 4.8153,-2.0064 -1.2039,-7.2229 c -5.4964,1.0975 -7.6087,4.6563 -7.2229,10.0318 -5.4291,-4.1627 -8.6887,-2.3591 -12.0381,-0.8025 -3.7864,-4.8357 -8.393,-4.7498 -13.242,-3.2102 -2.6678,-1.4081 -5.5721,-2.698 -12.4394,-2.0063 0.5801,-3.8795 -0.3455,-6.1165 -5.6179,-3.6115 -4.8726,0.086 -10.2428,-0.2428 -12.0381,2.4076 -1.5455,-3.4035 -7.186,-2.7121 -14.0446,-0.8025 -3.7452,-2.1194 -7.4904,-2.6819 -11.2356,0 -1.6324,-4.9661 -3.0464,-3.3799 -4.414,-0.4013 l -3.6114,5.2166 c -4.0892,-2.6035 -8.0784,-3.9046 -11.6369,0.4012 l -3.6115,3.2102 c 0.3628,-2.9019 0.6153,-5.7348 -3.2101,-6.0191 l -9.2293,-3.2101 v 6.4203 c -5.3503,-2.1401 -9.363,-2.9426 -12.0382,-2.4076 -6.3637,-2.8526 -8.7651,-2.3687 -10.8343,-1.6051 -1.6981,-2.9972 -2.1268,-6.3911 -12.0382,-6.8216 2.3848,-2.787 6.6977,-4.1968 2.0064,-12.0382 l 4.0127,1.2038 0.8025,-4.414 c -1.3353,-8.8355 -2.6705,-11.6129 -4.0058,-16.5694 -0.092,-2.2699 -5.4761,-4.5399 -10.7822,-6.8098 4.631,-1.5746 9.1999,-3.1879 9.6472,-7.3773 l -1.135,-3.4049 -2.8374,-0.5675 c 2.9038,-2.395 2.9121,-5.6809 -1.135,-10.2147 l 2.27,-0.5675 c 2.7549,-7.90923 -0.5173,-17.8275 -2.27,-27.23926 6.6863,-3.70582 -0.8491,-13.39971 -3.4049,-20.99693 3.8943,3.81796 4.9291,-4.9459 6.2424,-12.48466 l -6.2424,-5.10736 6.8098,1.70245 c 0.192,-3.5969 -1.5067,-5.30311 -2.8374,-7.3773 l -2.2699,-2.26994 c 2.6922,-1.8188 3.115,-4.5889 -0.5675,-9.07975 1.6188,0.28124 4.2272,3.20175 2.8374,-4.53988 -1.1888,-1.0562 -2.3715,-2.1288 -4.5399,-0.56749 3.3826,-3.28128 3.1029,-6.96947 1.7025,-10.7822 0.9104,4.49215 3.8292,0.95102 6.2423,-0.56749 -0.4839,-5.38744 -3.7254,-9.8557 -7.3773,-14.18712 4.5711,1.3585 8.6401,2.16461 7.9448,-2.26993 8.0489,-18.77055 25.2443,-23.46957 39.7239,-32.34663 3.9568,0.12445 7.9987,-0.43114 12.4847,-4.53988 l 2.8374,2.26994 c 7.2882,-1.22159 11.0425,-3.62962 14.1871,-6.24233 -0.4728,4.9771 3.7347,3.5189 7.3773,2.83742 4.9478,0.10037 9.8562,0.31892 15.3221,-1.13497 l -0.5675,1.70246 c 8.2558,2.2685 15.3393,1.69012 19.862,-5.10736 l 3.4049,6.80981 2.8374,-10.21472 c 2.086,6.1403 2.9111,6.39679 3.405,5.10736 l 6.8098,1.13497 v 5.10736 c 6.5446,-0.97719 5.2691,-16.12849 3.4049,-32.34663 2.2319,-8.3939 -1.1564,-31.23971 -2.27,-48.23619 l 6.8099,4.53988 c -3.8055,-14.47644 -5.0343,-26.74429 -5.1074,-38.02148 2.2069,0.18921 3.3039,-0.95355 2.8374,-3.97239 -3.7834,-2.76788 -3.1592,-5.14152 -4.5399,-7.3773 -6.1374,0.18009 -15.1111,-0.85541 -24.9693,-2.26994 -17.0642,1.60028 -34.1283,2.02962 -51.1925,0.9557 -4.7461,0.73798 -8.0701,2.89803 -11.2356,5.21654 l 2.8089,-8.02545 c -6.4915,1.81505 -12.4877,4.49687 -16.8535,10.03181 -12.1762,-1.55827 -24.6071,-0.31403 -37.3183,4.01272 -8.7109,0.65359 -11.9038,2.31046 -14.8471,4.01272 -3.3044,-1.84236 -6.8678,-2.13038 -11.2356,2.40764 -12.1406,0.99117 -23.3048,3.69099 -33.3056,8.42671 -7.9275,2.05534 -12.3606,5.85786 -16.0509,10.03181 -2.1263,-0.33334 -5.7457,-3.86628 -4.414,3.21018 l -5.2165,5.21654 c -5.2745,-2.47368 -6.4592,1.59646 -6.4204,7.62417 -6.2773,4.91876 -11.4959,10.74499 -14.0445,18.8598 -2.2261,2.36696 -3.9143,5.40643 -4.0127,10.43308 -2.4538,0.0295 -4.6296,2.70045 -6.0191,12.84071 -5.3746,1.52578 -8.3367,6.7337 -3.6114,23.67506 -1.0104,2.95396 -3.3942,4.87789 -0.4013,10.83435 -2.4313,9.89277 -3.5847,21.27629 -2.8089,34.91069 -3.0161,3.50482 -5.7593,7.73731 -5.6178,19.66234 -3.0472,11.22301 -0.9828,29.60237 1.2038,48.15268 -4.2962,1.99469 -6.7424,4.1925 -1.6051,7.22289 -2.7583,2.31932 -5.3694,4.65969 -0.8026,8.02545 -3.8486,13.64381 -1.8888,20.42326 0,27.28654 -0.9957,9.6384 -3.4583,19.4725 3.2102,28.089 l -1.2038,6.4204 c -5.2418,3.4532 -0.7661,9.5673 -0.8025,14.4458 -2.3063,6.8759 -1.8981,15.9235 -1.6051,24.8789 -3.6783,-4.6815 -6.7525,-8.1548 -8.828,-9.6306 -2.4618,2.2909 -3.5355,6.4324 -4.414,10.8344 -3.2102,-3.3439 -6.6879,-5.8853 -10.4331,-7.6242 -2.2739,-0.584 -4.5477,2.1092 -6.8216,5.2165 -4.2704,-4.2483 -9.1685,-5.606 -14.4458,-5.2165 -4.942,-1.7177 -9.2289,-1.47 -12.0382,3.2102 -10.0801,-4.2822 -20.5521,-6.4087 -31.7005,-4.8153 -9.9385,-2.8446 -14.7214,0.4039 -18.8598,4.414 -8.5456,-2.3924 -23.0979,-7.4893 -25.2801,-1.2038 -4.733,-2.7972 -9.0265,-2.4091 -11.6369,1.2038 l -4.8153,-1.2038 c -12.0467,-1.3609 -18.3989,-4.9996 -25.2802,-8.4267 l -2.4076,3.2102 -3.2102,-3.6115 c 0.9062,10.0914 -2.9657,21.9203 3.2102,30.0954 -8.16773,1.5653 -8.07219,9.328 -5.6178,18.8598 l 4.0127,-6.0191 -3.6114,14.8471 c 0.3007,4.1465 2.778,8.293 6.8216,12.4395 l -4.414,-0.8026 c 1.2936,6.1908 3.3958,12.7835 6.0191,18.4585 -1.5768,4.9994 -2.5304,10.2659 -0.4013,16.8535 l 4.414,2.8089 -5.2165,2.4076 c 3.2835,2.294 0.3955,6.6452 -0.8026,10.4331 l 5.2166,-4.414 c 2.0064,2.1062 4.0127,1.2032 6.0191,-0.4013 l 3.2101,3.6115 c 4.138,1.7814 8.3345,3.2704 14.0446,-2.8089 -4.0169,8.8901 1.7685,6.5774 8.8279,2.8089 8.1177,3.0502 11.6356,0.734 16.8535,0.4012 4.4519,0.7806 6.3218,4.5736 13.6432,2.0064 4.5261,5.898 4.3813,0.1188 6.0191,-1.2038 4.3767,3.2894 15.7284,0.8718 25.6814,-0.4013 l -1.2038,-3.2102 c 6.7772,7.1087 9.6915,3.9853 12.8407,2.4077 l 0.8026,4.0127 c 6.2866,0.8025 9.898,-1.07 10.8343,-5.6178 l 4.8153,6.4203 c 5.5754,-0.8765 8.4298,-2.2065 10.8344,-3.6114 l 2.4076,2.4076 10.0318,-2.4076 -0.4013,-3.2102 c 2.9459,3.7397 5.8861,0.4648 8.828,-0.8025 l 1.2038,5.2165 h 8.0255 l -0.8026,-4.414 h 3.6115 l 1.6051,4.414 c 4.8153,-0.4012 7.4904,-2.1401 8.0254,-5.2165 4.525,1.6706 8.1708,0.7036 11.6369,-0.8026 l 1.6051,2.8089 c -8.8312,0.8702 -6.0277,9.3283 -2.8089,18.0573 0.9804,3.1509 0.6054,6.7536 0,10.4331 l 6.0191,-1.6051 c -2.6226,2.4076 -4.5747,4.8153 -4.0127,7.2229 0.7842,4.4576 3.636,6.5031 7.6241,7.2229 -4.0737,7.8784 -7.6157,17.44 -2.8089,33.7068 -6.8671,2.9028 -8.3784,6.9959 -5.6178,12.0382 -1.3268,9.3469 -0.8016,15.9157 3.2102,17.2547 -0.2598,7.5433 -0.6557,15.0123 4.8153,25.6814 l -6.4204,-1.6051 c 1.5087,6.0689 1.4634,13.2477 6.4204,16.8535 -4.8806,3.2989 -4.9932,9.4094 -0.8026,18.0572 -0.4129,5.2072 -4.166,7.7423 2.8089,18.8598 l -1.2038,20.4649 c 0.1898,8.0927 -2.0049,21.2418 3.6115,21.6687 l -6.4204,10.8344 c 2.1344,2.4804 4.2846,4.4386 6.4204,-2.0064 0.2012,3.7452 -1.6862,7.4904 2.4076,11.2356 -3.181,3.8404 -4.2752,9.0223 0,17.656 l -8.828,-4.414 c 2.4745,3.0095 3.7745,5.6275 9.2293,9.6305 -1.3376,7.8736 -2.6752,16.2095 -4.0128,25.6815 -0.5332,3.5285 -2.2888,6.5987 1.2039,11.6369 0.2615,6.4089 -2.9237,3.476 1.605,21.2674 -7.3495,-1.1844 -6.2635,0.7945 -0.8025,4.414 l 2.0064,5.2165 c -2.5132,-0.9072 -5.3619,-2.3365 -3.2102,4.0128 -0.6832,9.2855 -3.004,18.2071 0.8025,28.4903 -4.9784,-0.3048 1.3981,9.7557 3.2102,15.6496 l -8.0254,-15.6496 c 0.183,10.4315 -0.026,21.8221 4.8152,20.8661 -1.3582,1.7712 -3.7717,3.2408 -1.6051,6.0191 -7.0951,2.494 -9.5657,5.9449 -1.2038,11.6369 0.3815,8.3028 -2.2019,18.0882 1.2038,24.8789 l -4.0127,-1.2038 3.2102,6.8216 -4.414,-2.0063 2.8089,24.4776 1.6051,14.847 c -3.5128,4.2828 -5.5486,8.9685 -3.2102,14.8471 l -5.2165,7.2229 1.2038,4.414 2.8089,-2.8089 -3.2102,-6.0191 4.0127,-4.8153 c 0.1487,2.9427 -0.1445,5.8853 3.6115,8.828 -2.4589,2.5579 -1.6675,5.7659 -1.6051,8.828 -5.2536,-1.6099 -7.9609,0.1752 -10.0318,2.8089 -1.4936,-2.4331 -3.2535,-4.9423 -8.4267,-8.4267 l -0.4013,-12.4394 c -4.2143,-2.5927 -5.8282,-1.935 -8.0254,-2.0064 -1.7159,-2.6259 -2.1658,-5.8145 -8.4268,-6.4203 2.2097,-1.5456 2.8657,-3.6738 0.8026,-6.8217 -1.7494,-3.9973 -3.8788,-5.8416 -7.2229,-0.8025 -3.3588,-3.6707 -5.7155,-3.3333 -8.0255,-2.8089 -1.3474,-2.0769 -2.5606,-6.8381 -4.414,1.2038 -3.3523,1.6375 -7.0522,2.9934 -13.6432,2.0064 l -4.8153,-2.809 0.4013,-5.6178 -4.414,1.6051 c -3.4823,0.9857 -6.4987,1.2555 -12.4394,6.0191 l 4.8152,-6.0191 c -7.2252,0.7199 -11.6391,1.8723 -25.2801,1.6051 -0.4987,1.6092 -0.6167,3.2661 1.6051,5.2166 -2.5469,-2.4188 -3.3036,-1.257 -3.2102,1.605 -0.214,-2.6504 -0.9571,-4.5277 -3.6115,-3.6114 l -5.2165,2.8089 c -1.5548,-2.8542 -2.6975,-7.9067 -6.4204,0.8025 -1.6171,-5.2395 -13.7988,-2.4499 -24.4776,-0.8025 -1.1816,-3.1763 -3.3269,-2.0163 -6.0191,1.6051 -3.4307,-1.8122 -3.925,0.151 -4.8152,1.6051 -7.5807,-1.8565 -13.5481,-1.1318 -19.2611,0 l 1.2038,-4.0127 6.4204,-0.8026 -4.0127,-4.414 -2.0064,7.2229 c -13.3855,-1.002 -27.1891,0.9234 -41.33104,5.2166 -19.21204,-2.4757 -32.92378,-3.8549 -46.54758,-5.2166 -5.17072,1.3411 -12.26535,2.1689 -20.06361,2.8089 -10.54755,-2.7683 -22.92812,-2.1324 -36.11451,0 l -30.49669,0.4013 c -3.07969,-4.2487 -14.94411,-2.0044 -26.48397,0 -11.49821,-1.1245 -24.08814,-0.9588 -39.72595,2.8089 l -4.81527,2.4076 -13.43254,-9.3711 4.60455,-4.2721 -6.01908,-0.4013 -2.00636,8.828 4.01272,3.2102 8.82799,-2.8089 2.8089,2.0063 c -4.5009,-0.1655 -6.4578,1.577 -6.42035,4.8153 -7.87227,-1.2561 -14.69415,-1.7245 -18.05725,0.4013 l -6.42036,-5.2166 -7.2229,-1.2038 h -8.42672 c -6.6834,-4.8277 -10.67868,-1.0535 -15.64962,-0.4013 l -2.8089,4.0128 -7.2229,-1.2039 v 4.0128 c -6.15458,-2.4122 -10.08667,0.9541 -14.4458,3.2101 2.64858,-4.2574 5.16502,-8.4016 5.21654,-10.433 -8.87648,-3.0993 -13.64814,-1.7292 -18.45853,-0.4013 -2.22992,-5.1443 -10.32726,-3.0106 -16.12391,-3.1615 -5.98083,-7.3155 -10.38789,-13.9922 -13.97151,-9.2779 -4.3125,-5.5256 -10.71388,-6.5253 -17.2547,-7.2229 -25.70039,-20.7373 -15.74527,-30.1497 -28.08906,-58.1845 3.05277,3.4226 6.57854,8.7737 7.62417,4.0127 0.32551,-4.7118 -1.30024,-10.2041 -2.80891,-15.6496 2.53101,-1.4979 0.26806,-6.42 -2.40763,-11.6369 l -0.80254,-4.8153 -2.00636,-1.6051 c -1.26639,-10.9103 -2.50761,-21.9514 -5.61782,-23.2738 3.87024,-3.8488 2.18425,-9.0845 3.21018,-13.6432 l 8.02545,-0.8026 -1.60509,-6.4203 -5.61781,-0.4013 2.40763,8.4267 -3.21018,1.2038 c -0.27588,-4.6711 -1.25445,-9.4007 -6.01908,-14.4458 3.38445,1.8698 6.93413,4.4557 9.22926,1.6051 0.17908,-1.6765 -2.01956,-3.1152 -5.61781,-4.414 v -2.4076 c 4.81547,1.4848 3.7614,-1.139 5.21654,-2.0064 0.0472,-2.868 -5.09726,-1.0318 -8.02545,-1.2038 5.87873,-3.9976 1.37909,-8.4725 -1.60509,-13.6432 l 4.01273,1.2038 c 2.49299,-0.4882 0.65809,-7.442 0.40127,-12.0382 l -2.40764,2.0064 c 2.1118,-6.4109 1.55622,-11.9327 -2.00636,-16.4522 3.45425,-1.179 5.20803,-3.3297 6.01909,-6.0191 -2.14316,-1.9862 -5.15369,-0.9897 -8.02545,-2.0063 7.10313,-3.4951 6.14154,-6.0414 0.40127,-8.0255 l 7.2229,-0.8025 c 0.89162,-1.6051 1.92063,-3.2102 -1.60508,-4.8153 l -2.00637,6.0191 -2.40763,1.6051 c 2.74219,-7.8916 1.76063,-15.7834 0.40127,-23.6751 -0.28589,-5.3635 -0.0615,-6.6451 0,-9.2292 1.53621,-0.8171 4.04439,-1.0511 2.00636,-4.0128 l -3.21017,-4.414 c 2.56027,-4.0892 1.01785,-9.7169 0.80254,-14.847 3.63305,1.0917 4.529,-0.5538 6.01908,-1.6051 -1.29633,-2.5314 -3.16864,-3.3348 -5.21653,-3.6115 1.47897,-1.3753 2.84805,-2.7611 5.61781,-4.0127 -2.066,-3.6558 -4.84753,-6.2382 -8.42672,-7.6242 3.96976,-4.1632 2.2127,-12.3351 2.80891,-18.8598 l 4.81526,8.4268 c 7.56917,-4.3495 9.45245,-7.5619 13.64326,-11.2357 -3.94655,1.8461 -6.40655,3.0976 -12.03817,5.6178 l -5.21654,1.2039 c 0.38387,-3.0473 0.20685,-6.2349 -2.40763,-10.0318 5.00509,0.8292 6.9051,-2.0454 9.22926,-4.414 -2.10376,-2.1999 -4.34033,-3.2044 -6.82163,-2.0064 0.55119,-7.3728 -0.70739,-12.9359 -2.00636,-18.4585 l 3.21018,2.4076 c 1.17305,-7.2254 0.23712,-15.7689 -1.60509,-24.8789 3.15604,-2.0064 0.29901,-4.0127 -1.60509,-6.0191 3.46331,-2.8933 3.10087,-5.8754 4.01272,-8.8279 l -5.21654,0.8025 c -1.7042,-11.2888 0.87847,-17.1216 3.21018,-23.2738 -4.40044,0.5083 -4.37499,2.0002 -5.61781,3.2102 1.34528,-5.8564 2.28303,-11.3418 2.80891,-16.4522 l -3.61145,3.2102 c 2.97822,-8.0711 3.81,-16.9769 0,-27.6878 2.89286,1.4586 5.89021,4.0665 8.42671,1.6051 -2.39435,-7.1467 -6.16621,-8.3242 -9.63053,-10.8343 5.18011,-5.5685 3.44218,-13.0587 2.00636,-20.4649 4.47437,-23.0669 5.78245,-47.7169 4.91074,-73.4568 1.45436,-6.3627 -0.64381,-8.5808 -2.26993,-11.3496 5.1815,0.9965 3.27576,-5.6393 1.70245,-11.9172 6.36311,-9.7744 2.19639,-21.6548 1.13497,-32.9141 0.65284,-12.2639 -1.77802,-21.6898 -4.80346,-30.6098 4.0075,-4.6235 1.00296,-13.3909 3.101,-21.5988 l -5.10736,3.4049 c 3.37247,-8.4123 4.7297,-16.4887 1.70246,-23.83437 1.12238,-14.95636 -0.84462,-33.00209 -2.26994,-50.50614 3.58138,-15.51125 0.87979,-31.02249 0,-46.53374 l 5.67484,-4.53988 c -2.13876,-0.61121 -3.35493,-1.52995 -8.51227,-1.13497 3.12526,-9.59055 0.13158,-16.67513 -0.56748,-22.69938 5.14533,10.97811 7.02073,3.751 9.64724,0 l -9.07976,-2.26994 c 0.34323,-8.4699 -0.39989,-12.7316 -1.13496,-17.02454 h 5.67484 l 3.40491,3.97239 c 5.43568,-3.23966 3.70491,-3.52844 5.10736,-5.10736 H 588.4816 c 6.80981,1.13497 1.91299,-6.33814 1.16813,-9.00588 -1.48777,-5.3285 2.3921,-11.30845 -2.3031,-14.82848 10.31907,-1.7771 12.83843,-2.68757 13.61963,-3.40491 l -2.26994,-9.07975 c 0.97061,4.45305 -0.69624,9.19915 -4.53988,14.18712 l -5.10736,-1.13497 c 3.21296,-26.8566 0.7942,-44.95276 -0.56748,-64.69326 3.2332,1.25843 -1.2839,-7.76393 1.13497,-17.02453 4.07119,-14.85943 4.0922,-31.23767 3.97239,-47.66872 2.45937,-31.96825 2.64799,-64.31497 0.56748,-97.03987 5.12605,-3.32551 7.12909,-7.27562 8.51227,-11.3497 2.09219,-10.5232 0.10322,-12.20388 -2.26994,-13.05214 8.74274,-2.41779 11.32372,-10.99735 14.18712,-19.29448 5.17558,-3.66229 8.77446,-5.74788 12.48466,-7.94479 0.39584,3.7085 2.45354,6.3091 5.10737,8.51227 v -8.51227 c 5.62643,1.73651 10.97207,3.12204 13.61963,1.13497 l 5.10736,5.67485 0.56748,-9.07976 10.21473,7.3773 c 13.20748,-0.73341 25.83729,-1.78773 32.34662,-6.24233 23.10223,-0.42332 45.5744,-1.18591 59.01841,-6.80981 -2.09546,6.8682 1.38013,5.93693 6.80981,2.26993 8.2515,2.2009 8.73725,-1.03423 9.64724,-3.97239 7.03437,9.37178 6.22255,1.93029 8.51227,1.13497 2.8783,5.4752 4.99701,4.11421 6.80982,0 3.55262,5.73283 10.17414,5.63742 17.02454,5.10736 12.66379,2.68114 17.95581,0.8886 20.99693,-2.26994 l 2.26994,6.80982 3.97239,-6.24233 c 3.21575,4.19478 6.43149,3.88227 9.64724,4.53988 4.2823,0.86979 3.16562,-4.25929 2.83743,-8.51227 1.51504,3.59232 2.29266,7.92206 7.3773,7.94478 l 2.26994,-5.10736 c 14.91895,6.45602 20.57776,-3.97509 30.64417,3.97239 6.06781,-1.70036 7.69519,-4.03507 10.21472,-6.24233 1.25675,4.96961 4.6203,5.37449 9.07976,3.40491 17.78118,1.36577 35.56237,-0.51882 53.34355,-3.40491 10.40389,-0.17606 20.80777,0.313 31.21166,2.26994 l 7.94479,-2.83742 2.26993,4.53987 5.10732,-5.10736 c 5.6749,4.80081 11.3497,1.86835 17.0246,0 1.5017,1.98391 2.9717,3.98512 10.2147,2.83743 7.1955,-0.93991 14.1629,-2.06236 18.727,-5.10737 l 6.2423,3.9724 15.3221,-1.70246 c 11.7584,1.32722 21.7452,1.00102 25.5368,-5.10736 l 9.0798,2.83742 14.7546,-2.26994 14.1871,-3.4049 c 14.3487,2.97148 29.2743,2.33165 35.1841,-3.40491 -5.3783,4.1675 5.6732,12.04494 16.457,19.86196 l 5.6749,-3.40491 -5.1074,-3.4049 -7.9448,5.67484 -7.3773,-11.91718 11.9172,-2.26993 c 12.7755,5.5813 22.047,1.35132 32.3466,0 1.5525,3.72445 5.4737,3.89582 9.0798,4.53987 13.8088,1.75423 27.6175,0.23492 41.4263,-1.70245 5.0271,0.47905 8.5425,0.31018 17.0246,2.26994 2.1946,-0.55463 3.2784,-1.84982 2.2699,-4.53988 3.4181,3.64018 9.9874,3.2986 14.1871,5.67485 z"
       id="path9"
       inkscape:connector-curvature="0"
       sodipodi:nodetypes="cccccccccccccccccccccccccccccccccccccccccccccccccccccccccccccccccccccccccccccccccccccccccccccccccccccccccccccccccccccccccccccccccccccccccccccccccccccccccccccccccccccccccccccccccccccccccccccccccccccccccccccccccccccccccccccccccccccccccccccccccccccccccccccccccccccccccccccccccccccccccccccccccccccccccccccccccccccccccccccccccccccccccccccccccccccccccccccccccccccccccccccccccccccccccccccccccccccccccccccccccccccccccccccccccccccccccccccccccccccccccccccccccccccccccccccccccccccccccccccccccccccccccccccccccccccccccccccccccccccscccccccccccccccccccccccccccccccccccccccccccccccccccccccccccccccc" />
  </g>
</svg>
