<?xml version="1.0" encoding="UTF-8" standalone="no"?>
<svg
   xmlns:dc="http://purl.org/dc/elements/1.1/"
   xmlns:cc="http://creativecommons.org/ns#"
   xmlns:rdf="http://www.w3.org/1999/02/22-rdf-syntax-ns#"
   xmlns:svg="http://www.w3.org/2000/svg"
   xmlns="http://www.w3.org/2000/svg"
   xmlns:sodipodi="http://sodipodi.sourceforge.net/DTD/sodipodi-0.dtd"
   xmlns:inkscape="http://www.inkscape.org/namespaces/inkscape"
   width="34.438488mm"
   height="35.972622mm"
   viewBox="0 0 34.438488 35.972622"
   version="1.1"
   id="svg8"
   inkscape:version="1.0.2-2 (e86c870879, 2021-01-15)"
   sodipodi:docname="brocha - copia.svg"
   inkscape:export-filename="C:\Users\personal\Downloads\brocha.png"
   inkscape:export-xdpi="157.383"
   inkscape:export-ydpi="157.383">
  <defs
     id="defs2" />
  <sodipodi:namedview
     id="base"
     pagecolor="#ffffff"
     bordercolor="#666666"
     borderopacity="1.0"
     inkscape:pageopacity="0"
     inkscape:pageshadow="2"
     inkscape:zoom="3.0251257"
     inkscape:cx="65.535717"
     inkscape:cy="68.392857"
     inkscape:document-units="mm"
     inkscape:current-layer="layer1"
     inkscape:document-rotation="0"
     showgrid="false"
     fit-margin-top="0"
     fit-margin-left="0"
     fit-margin-right="0"
     fit-margin-bottom="0"
     showguides="true"
     inkscape:guide-bbox="true"
     inkscape:pagecheckerboard="false"
     inkscape:window-width="1366"
     inkscape:window-height="705"
     inkscape:window-x="-8"
     inkscape:window-y="-8"
     inkscape:window-maximized="1" />
  <metadata
     id="metadata5">
    <rdf:RDF>
      <cc:Work
         rdf:about="">
        <dc:format>image/svg+xml</dc:format>
        <dc:type
           rdf:resource="http://purl.org/dc/dcmitype/StillImage" />
        <dc:title />
      </cc:Work>
    </rdf:RDF>
  </metadata>
  <g
     inkscape:groupmode="layer"
     id="layer2"
     inkscape:label="Capa 2"
     style="display:inline">
    <path
       style="opacity:0.4;fill:none;fill-opacity:1;stroke:#000000;stroke-width:0.264583px;stroke-linecap:butt;stroke-linejoin:miter;stroke-opacity:1"
       d="M -2.4568452,-2.4568446 V 38.648065 H 37.136162 V -2.4568446 Z"
       id="path869" />
  </g>
  <g
     inkscape:label="Capa 1"
     inkscape:groupmode="layer"
     id="layer1"
     transform="translate(-146.06647,-228.45416)"
     style="display:inline">
    <path
       style="display:inline;opacity:0.5;fill:#000000;fill-opacity:1;stroke:none;stroke-width:0.264583"
       d="m 156.33859,250.25378 -1.54518,3.13382 c 0.57641,1.33731 0.67148,1.01219 1.86982,0.46513 2.08781,-1.62138 4.31454,-3.2626 6.78048,-4.938 l -7.27679,-11.705 -8.18745,5.27801 0.61676,1.14743 6.66794,-1.89792 -4.0254,5.66303 1.74077,2.86623 z"
       id="path3815"
       inkscape:connector-curvature="0"
       sodipodi:nodetypes="ccccccccccc" />
    <path
       id="path3817"
       style="display:inline;opacity:0.5;fill:#d2d2d2;fill-opacity:1;stroke:none;stroke-width:0.999999"
       d="M 117.00781,5.0234375 C 114.61401,4.9077287 111.3253,6.0327364 108.85938,8.4550781 100.1103,16.580911 91.910847,23.230368 84.701172,29.699219 77.978035,35.408233 72.445081,34.164885 68.486328,31.050781 65.80086,28.722743 64.077542,25.858289 62.324219,22.181641 60.568288,19.64743 60.536995,18.152384 56.734375,21.363281 l -3.257813,2.048828 28.646485,44.246094 4.365234,-2.314453 c 1.225134,-0.798614 2.007584,-1.618346 0.595703,-2.548828 -0.631748,-1.99903 -4.014166,-6.487788 -5.43164,-9.144531 -5.605002,-8.535496 0.330219,-15.060551 6.078125,-17.480469 L 116.82617,24.5625 c 8.26919,-2.91549 12.8405,-16.2923617 1.14649,-19.4140625 -0.30047,-0.067035 -0.62288,-0.1084702 -0.96485,-0.125 z m -4.74254,5.1373315 c 6.47556,-4.0863147 11.88587,3.428348 6.66522,9.07176 -5.16217,4.222274 -13.55694,-3.337642 -6.66522,-9.07176 z"
       transform="matrix(0.26458333,0,0,0.26458333,146.06647,228.45416)"
       sodipodi:nodetypes="scccccccccccccsccc" />
    <path
       style="display:inline;opacity:0.5;fill:#000000;fill-opacity:1;stroke:none;stroke-width:0.264583"
       d="m 154.55624,257.60118 c 0.0543,2.43557 0.58374,5.24997 0.11895,5.32495 -0.47409,-0.13672 -0.74728,-2.26957 -0.11895,-5.32495 z"
       id="path3015"
       inkscape:connector-curvature="0"
       sodipodi:nodetypes="ccc" />
    <path
       style="display:inline;opacity:0.5;fill:#000000;stroke:none;stroke-width:0.264583"
       d="m 156.79534,234.93828 -10.40687,6.71407 c -0.45409,0.28407 -0.33394,0.56813 -0.2029,0.85219 l 1.70437,2.6783 4.15265,-1.17122 -2.69176,3.44371 2.71888,4.54499 1.91438,-0.21562 -0.8593,1.71709 1.17683,2.06959 c 0.55136,1.28342 5.16884,-2.02022 5.16884,-2.02022 l 6.03132,-4.3103 -8.54094,-14.11482 -1.02208,1.26361 7.78231,12.57987 -4.82326,3.44143 c -1.20704,0.90269 -3.56724,2.92978 -3.90662,1.85807 l -0.41185,-0.90835 1.40456,-2.89514 -3.16406,0.0356 -1.83216,-3.11997 3.7829,-5.29512 -6.26527,1.79764 -0.84521,-1.46821 9.82989,-6.34347 z"
       id="path3785"
       inkscape:connector-curvature="0"
       sodipodi:nodetypes="cccccccccccccccccccccccccc" />
    <path
       style="display:inline;opacity:0.5;fill:#000000;stroke:none;stroke-width:0.264583"
       d="m 159.35658,233.49635 -1.01077,0.60804 8.93143,13.95298 2.84077,-1.89384 c 0.58192,-0.47824 0.57177,-0.95649 0.25825,-1.43473 l -1.69298,-2.6399 c -0.86389,-1.71187 0.0415,-2.45066 1.31995,-2.98424 l 6.6724,-2.61005 c 2.63223,-1.17926 3.68012,-2.64042 3.78193,-3.9852 0.50945,-3.09819 -3.19163,-5.43993 -6.10929,-3.1123 l -5.9653,5.60008 c -1.44583,1.2923 -2.82815,1.88841 -3.97686,0.24348 l -1.34279,-2.36779 c -0.41475,-0.77639 -1.2387,-0.86342 -2.14711,-0.22934 l -2.0696,1.2174 0.94673,0.95818 1.55447,-1.00498 c 0.51709,-0.39626 0.61168,-0.36017 0.98817,-0.0534 l 1.09364,2.01018 c 1.93759,2.43937 3.86963,1.56072 5.37308,0.18919 l 6.24302,-5.50121 c 3.00689,-2.53005 6.63955,2.0611 1.99035,4.58117 l -7.50989,2.9404 c -1.95597,0.8617 -3.01094,2.47479 -1.83596,4.5241 l 1.50147,2.49917 c 0.26246,0.26075 0.32221,0.54032 -0.007,0.70129 l -1.4033,0.74718 z"
       id="path3787"
       inkscape:connector-curvature="0"
       sodipodi:nodetypes="cccccccccccccccccccccccccccc" />
    <path
       style="display:inline;opacity:0.5;fill:#000000;stroke:none;stroke-width:0.264583"
       d="m 175.76999,231.14253 0.44269,0.68827 c -0.44834,0.44408 -0.47044,0.72135 -0.0549,1.10561 0.40212,0.25247 0.68538,0.23045 0.96028,-0.12956 0.2766,-0.3919 0.2759,-0.6404 -0.0989,-1.02794 -0.23057,-0.17907 -0.45645,-0.24222 -0.80775,0.0496 l -0.47173,-0.62213 c 0.44337,-0.48448 1.12957,-0.41456 1.71949,-0.14038 0.65595,0.42335 0.81192,1.22006 0.33115,2.1581 -0.45674,0.72876 -1.45925,0.76485 -2.06626,0.36734 -0.71086,-0.64778 -0.97524,-1.66139 0.0459,-2.44891 z"
       id="path3791"
       inkscape:connector-curvature="0"
       sodipodi:nodetypes="cccccccccccc" />
    <path
       style="display:inline;opacity:0.5;fill:#000000;stroke:none;stroke-width:0.264583"
       d="m 154.72772,255.85545 c -1.19668,2.35092 -2.55763,5.19428 -1.58381,7.55028 0.59574,1.35392 2.41952,1.42878 2.89428,-0.18261 0.58496,-1.41913 -0.9399,-5.4412 -1.32482,-7.36708 l -0.1324,1.12617 c 0.0949,1.33423 0.1791,3.22018 0.2876,4.00616 0.38203,2.80782 -0.65593,2.69843 -0.77504,0.0292 -0.033,-0.71554 0.17974,-2.64907 0.55731,-4.00366 0.12283,-0.44066 -0.027,-0.6255 0.0769,-1.15841 z"
       id="path3786"
       inkscape:connector-curvature="0"
       sodipodi:nodetypes="cccccccccc" />
  </g>
</svg>
