<?xml version="1.0" encoding="UTF-8" standalone="no"?>
<svg viewBox="0 0 420 450" width="120" title="bars">
    <path
        style="opacity:0.50000000000000000;fill:#faf5f1;fill-opacity:1;fill-rule:nonzero;stroke:none"
        d="M16 132h416c8.837 0 16-7.163 16-16V76c0-8.837-7.163-16-16-16H16C7.163 60 0 67.163 0 76v40c0 8.837 7.163 16 16 16zm0 160h416c8.837 0 16-7.163 16-16v-40c0-8.837-7.163-16-16-16H16c-8.837 0-16 7.163-16 16v40c0 8.837 7.163 16 16 16zm0 160h416c8.837 0 16-7.163 16-16v-40c0-8.837-7.163-16-16-16H16c-8.837 0-16 7.163-16 16v40c0 8.837 7.163 16 16 16z"
    />
</svg>