<?xml version="1.0" encoding="UTF-8" standalone="no"?>
<!-- Created with Inkscape (http://www.inkscape.org/) -->

<svg
   xmlns:dc="http://purl.org/dc/elements/1.1/"
   xmlns:cc="http://creativecommons.org/ns#"
   xmlns:rdf="http://www.w3.org/1999/02/22-rdf-syntax-ns#"
   xmlns:svg="http://www.w3.org/2000/svg"
   xmlns="http://www.w3.org/2000/svg"
   xmlns:sodipodi="http://sodipodi.sourceforge.net/DTD/sodipodi-0.dtd"
   xmlns:inkscape="http://www.inkscape.org/namespaces/inkscape"
   id="svg2"
   version="1.1"
   inkscape:version="0.48.5 r10040"
   width="460.69449"
   height="464.58957"
   sodipodi:docname="azar3d.svg"
   inkscape:export-filename="C:\Users\David\Dropbox\Third Eye Team\Archivo\Scans\azar5.png"
   inkscape:export-xdpi="157.38342"
   inkscape:export-ydpi="157.38342">
  <metadata
     id="metadata8">
    <rdf:RDF>
      <cc:Work
         rdf:about="">
        <dc:format>image/svg+xml</dc:format>
        <dc:type
           rdf:resource="http://purl.org/dc/dcmitype/StillImage" />
        <dc:title />
      </cc:Work>
    </rdf:RDF>
  </metadata>
  <defs
     id="defs6" />
  <sodipodi:namedview
     pagecolor="#000000"
     bordercolor="#666666"
     borderopacity="1"
     objecttolerance="10"
     gridtolerance="10"
     guidetolerance="10"
     inkscape:pageopacity="0.65098039"
     inkscape:pageshadow="2"
     inkscape:window-width="1280"
     inkscape:window-height="706"
     id="namedview4"
     showgrid="false"
     showguides="true"
     inkscape:guide-bbox="true"
     inkscape:zoom="1.0525419"
     inkscape:cx="230.34724"
     inkscape:cy="232.29478"
     inkscape:window-x="-8"
     inkscape:window-y="-8"
     inkscape:window-maximized="1"
     inkscape:current-layer="layer7"
     fit-margin-top="0"
     fit-margin-left="0"
     fit-margin-right="0"
     fit-margin-bottom="0" />
  <g
     inkscape:groupmode="layer"
     id="layer7"
     inkscape:label="Numeros"
     style="display:inline"
     transform="translate(-89.568828,113.24275)">
    <path
       style="opacity:0.5;fill:#ffffff;fill-opacity:1;stroke:none"
       d="m 383.02811,121.08554 c -13.99899,-9.21625 -40.2185,29.66106 -24.26359,41.30656 21.47494,5.04245 34.8284,-35.87261 24.26359,-41.30656 z"
       id="path3808"
       inkscape:connector-curvature="0"
       sodipodi:nodetypes="ccc" />
    <path
       sodipodi:nodetypes="ccc"
       inkscape:connector-curvature="0"
       id="path3810"
       d="m 448.19897,80.394463 c -13.10821,-7.11564 -31.66201,32.453547 -17.15432,39.578087 16.35818,2.66234 27.25785,-35.428117 17.15432,-39.578087 z"
       style="opacity:0.5;fill:#ffffff;fill-opacity:1;stroke:none" />
    <path
       style="opacity:0.5;fill:#ffffff;fill-opacity:1;stroke:none"
       d="m 439.71661,160.88639 c -11.02418,-6.33587 -29.47722,28.64384 -17.26051,35.01628 13.88623,2.60782 25.78534,-31.27017 17.26051,-35.01628 z"
       id="path3812"
       inkscape:connector-curvature="0"
       sodipodi:nodetypes="ccc" />
    <path
       sodipodi:nodetypes="ccc"
       inkscape:connector-curvature="0"
       id="path3814"
       d="m 376.17667,204.78311 c -11.60544,-8.37144 -36.32022,28.64399 -23.38415,37.19473 15.24173,4.5303 32.49224,-32.01226 23.38415,-37.19473 z"
       style="opacity:0.5;fill:#ffffff;fill-opacity:1;stroke:none" />
    <path
       sodipodi:nodetypes="ccc"
       inkscape:connector-curvature="0"
       id="path3816"
       d="m 271.54536,120.86053 c -16.50805,7.55239 4.1509,51.78215 21.20284,45.25217 17.49035,-10.25191 -9.65744,-51.76606 -21.20284,-45.25217 z"
       style="opacity:0.75;fill:#ffffff;fill-opacity:1;stroke:none" />
    <path
       style="opacity:0.75;fill:#ffffff;fill-opacity:1;stroke:none"
       d="m 230.36391,94.864463 c -15.74265,7.202207 3.95845,49.381237 20.21978,43.154027 16.67939,-9.77657 -9.20968,-49.365897 -20.21978,-43.154027 z"
       id="path3818"
       inkscape:connector-curvature="0"
       sodipodi:nodetypes="ccc" />
    <path
       sodipodi:nodetypes="ccc"
       inkscape:connector-curvature="0"
       id="path3820"
       d="m 194.82946,71.170953 c -14.531,6.07716 3.46676,46.706517 17.31712,41.980697 14.2246,-7.37924 -7.11922,-47.299197 -17.31712,-41.980697 z"
       style="opacity:0.75;fill:#ffffff;fill-opacity:1;stroke:none" />
    <path
       style="opacity:0.75;fill:#ffffff;fill-opacity:1;stroke:none"
       d="m 203.2863,153.56318 c -10.87232,5.63265 7.49842,41.57836 18.38078,37.06056 11.55971,-6.88957 -9.41859,-42.07359 -18.38078,-37.06056 z"
       id="path3822"
       inkscape:connector-curvature="0"
       sodipodi:nodetypes="ccc" />
    <path
       sodipodi:nodetypes="ccc"
       inkscape:connector-curvature="0"
       id="path3824"
       d="m 236.64014,179.2122 c -11.42261,6.10617 8.49913,43.87462 19.94757,38.9475 12.9186,-7.66961 -10.53684,-44.3722 -19.94757,-38.9475 z"
       style="opacity:0.75;fill:#ffffff;fill-opacity:1;stroke:none" />
    <path
       style="opacity:0.75;fill:#ffffff;fill-opacity:1;stroke:none"
       d="m 272.35594,207.88739 c -11.75085,7.06105 11.31281,45.92903 23.15354,40.113 13.81081,-9.13006 -12.48256,-46.9084 -23.15354,-40.113 z"
       id="path3826"
       inkscape:connector-curvature="0"
       sodipodi:nodetypes="ccc" />
    <path
       style="fill:#ffffff;fill-opacity:1;stroke:none"
       d="m 299.40073,56.554863 c -1.37722,17.19427 45.93606,18.51608 47.35723,2.53053 -0.4413,-17.56731 -46.12826,-14.65548 -47.35723,-2.53053 z"
       id="path3828"
       inkscape:connector-curvature="0"
       sodipodi:nodetypes="ccc" />
    <path
       sodipodi:nodetypes="ccc"
       inkscape:connector-curvature="0"
       id="path3850"
       d="m 301.05155,18.030355 c -1.23211,14.409148 41.09629,15.516858 42.36772,2.120637 -0.3948,-14.7217722 -41.26823,-12.2815992 -42.36772,-2.120637 z"
       style="fill:#ffffff;fill-opacity:1;stroke:none" />
    <path
       style="fill:#ffffff;fill-opacity:1;stroke:none"
       d="m 301.71488,-13.127585 c -1.17398,11.9746238 39.15773,12.89517276 40.36919,1.76234 -0.37617,-12.234424 -39.32157,-10.206537 -40.36919,-1.76234 z"
       id="path3852"
       inkscape:connector-curvature="0"
       sodipodi:nodetypes="ccc" />
    <path
       style="fill:#ffffff;fill-opacity:1;stroke:none"
       d="m 222.76386,17.417524 c -0.2127,14.460169 42.0884,12.579519 42.41177,-0.873018 -1.4322,-14.6572582 -42.03171,-9.3401892 -42.41177,0.873018 z"
       id="path3854"
       inkscape:connector-curvature="0"
       sodipodi:nodetypes="ccc" />
    <path
       style="fill:#ffffff;fill-opacity:1;stroke:none"
       d="m 379.89996,19.926739 c -1.86398,13.909834 41.98688,16.591254 43.85041,3.664029 0.18955,-14.2744682 -42.2968,-13.464126 -43.85041,-3.664029 z"
       id="path3856"
       inkscape:connector-curvature="0"
       sodipodi:nodetypes="ccc" />
  </g>
  <g
     inkscape:groupmode="layer"
     id="layer3"
     inkscape:label="Relleno 1"
     style="display:inline"
     transform="translate(-89.568828,113.24275)">
    <path
       style="opacity:0.28800001;fill:#ffffff;fill-opacity:1;stroke:none"
       d="m 194.23968,195.0029 c 40.29591,32.02489 69.36227,55.90769 120.88772,96.07467 l -0.64155,-149.35516 c 0.119,-18.17176 -3.01294,-23.99758 -16.30621,-33.09554 L 169.98736,25.497527 c -2.43464,3.95563 9.23871,101.449073 13.69012,152.173603 0.86995,9.09387 3.31663,11.75472 10.5622,17.33177 z"
       id="path3786"
       inkscape:connector-curvature="0"
       sodipodi:nodetypes="ccccccc" />
  </g>
  <g
     inkscape:groupmode="layer"
     id="layer5"
     inkscape:label="Relleno 2"
     style="display:inline"
     transform="translate(-89.568828,113.24275)">
    <path
       style="opacity:0;fill:none;stroke:none"
       d="m 316.67609,297.15367 7.44869,-159.33154 c 1.31948,-14.71015 4.48955,-22.96211 14.62511,-30.55477 L 481.70866,27.618707 457.76436,197.16655 z"
       id="path3800"
       inkscape:connector-curvature="0"
       sodipodi:nodetypes="cccccc" />
  </g>
  <g
     inkscape:groupmode="layer"
     id="layer6"
     inkscape:label="Relleno 3"
     style="display:inline"
     transform="translate(-89.568828,113.24275)">
    <path
       style="opacity:0.525;fill:#ffffff;stroke:none"
       d="m 171.10156,23.278771 135.25443,75.746758 c 13.5287,6.993071 17.76719,6.536721 33.10869,-1.453306 l 138.83273,-68.68334 c -0.8687,-4.340089 -3.96043,-6.460993 -8.67752,-8.528638 L 329.07826,-38.495669 c -4.13893,-1.677232 -5.41183,-1.73181 -9.42978,-0.46134 l -134.33179,50.51206 c -8.55875,3.54912 -11.96254,6.555009 -14.21513,11.72372 z"
       id="path3803"
       inkscape:connector-curvature="0"
       sodipodi:nodetypes="ccccccccc" />
  </g>
  <g
     inkscape:groupmode="layer"
     id="layer2"
     inkscape:label="Contorno"
     style="display:inline"
     transform="translate(-89.568828,113.24275)">
    <path
       style="opacity:0.5;fill:#000000;fill-opacity:1;stroke:none"
       d="m 160.83436,42.912063 13.55688,129.316877 c 0.62529,13.76569 4.5017,20.40901 14.51674,28.80992 l 115.64077,94.35019 c 8.8922,5.5673 14.92707,6.30237 23.5185,-0.97529 L 451.6728,206.67484 c 6.48876,-4.38581 11.00507,-10.40026 12.27174,-21.08397 L 485.59003,40.576224 c 2.26421,-13.267719 -0.8165,-21.597964 -8.7544,-25.227456 L 334.21994,-41.773243 c -8.71994,-3.500409 -11.53225,-3.776372 -21.91609,0.126797 L 176.67894,7.2883438 C 160.52246,14.013734 156.80603,13.755607 160.83436,42.805723 l 8.80571,4.20953 c -1.57557,-15.47226 -4.11179,-30.415276 15.33335,-35.898688 l 131.79367,-49.887409 c 5.51887,-1.843828 9.56381,-1.954704 13.57642,0.0258 l 139.86258,58.493349 c 7.97099,3.467046 11.20669,7.007483 9.0055,20.171678 L 456.98977,185.93865 c -0.79225,9.4532 -3.37058,12.71655 -8.6135,16.05725 l -121.90724,85.1912 c -9.38604,6.75857 -9.40421,6.61111 -18.311,0.35238 L 192.2045,195.08384 c -6.58162,-4.92267 -8.90729,-7.27824 -9.67689,-17.12065 L 169.52083,46.270873 z"
       id="path3015"
       inkscape:connector-curvature="0"
       sodipodi:nodetypes="ccccccccccccccccccccccccccc" />
    <path
       style="opacity:0.5;fill:#000000;fill-opacity:1;stroke:none"
       d="m 170.22959,24.180467 140.74572,79.041973 c 9.31154,4.86139 11.03675,3.53602 19.54801,0 L 478.60253,29.636853 336.47272,109.85176 c -6.4866,3.95762 -10.03055,12.04346 -11.0791,23.42207 l -9.27964,162.1403 -0.37916,-159.19588 c -0.5266,-12.60603 -3.40312,-17.66457 -9.859,-23.98672 z"
       id="path3805"
       inkscape:connector-curvature="0"
       sodipodi:nodetypes="cccccccccc" />
  </g>
  <g
     inkscape:groupmode="layer"
     id="layer1"
     inkscape:label="Contorno Circulo"
     transform="translate(-27.36882,-16.4864)">
    <path
       sodipodi:nodetypes="ccccccccccccccccccccc"
       inkscape:connector-curvature="0"
       id="path3795"
       d="m 67.68774,115.63815 17.926224,11.54114 c -38.070669,54.39984 -45.65921,105.37358 -34.36348,162.70714 11.251415,59.57009 44.851805,102.36196 77.089856,128.49653 30.70935,23.3439 61.52757,41.81625 117.53942,44.74062 61.88652,2.81128 103.33832,-15.21011 143.10989,-46.51902 47.82674,-40.47748 78.13196,-89.16943 81.65894,-160.0239 C 472.6137,200.41118 455.62021,160.88636 429.9395,122.55294 403.99313,88.856583 377.06756,70.079842 337.66038,52.273841 302.37148,39.395959 269.08352,29.094967 218.76532,38.134806 155.33503,50.029699 115.89337,86.255607 82.806055,131.02205 L 67.675553,115.97956 C 104.16928,63.844793 153.87938,32.282291 215.21271,20.138865 c 44.26541,-7.461075 89.71863,-3.940207 131.84602,14.728748 35.62274,15.320046 69.02311,38.784744 96.9246,77.166367 25.87738,39.63388 45.45926,80.54434 44.00383,144.71501 -3.26753,65.43871 -29.20428,126.19725 -85.93324,173.06272 -47.96844,39.22951 -106.5255,54.05747 -158.57154,50.83791 -43.35165,-2.538 -87.17918,-17.01288 -126.73843,-47.69023 C 69.198687,393.75545 43.092629,347.51302 31.756734,296.42157 17.67336,213.25889 39.589267,161.60976 67.68774,115.63815 z"
       style="fill:#ffffff;fill-opacity:1;stroke:none;display:inline" />
  </g>
</svg>
