<?xml version="1.0" encoding="UTF-8" standalone="no"?>
<!-- Created with Inkscape (http://www.inkscape.org/) -->

<svg
   xmlns:dc="http://purl.org/dc/elements/1.1/"
   xmlns:cc="http://creativecommons.org/ns#"
   xmlns:rdf="http://www.w3.org/1999/02/22-rdf-syntax-ns#"
   xmlns:svg="http://www.w3.org/2000/svg"
   xmlns="http://www.w3.org/2000/svg"
   xmlns:sodipodi="http://sodipodi.sourceforge.net/DTD/sodipodi-0.dtd"
   xmlns:inkscape="http://www.inkscape.org/namespaces/inkscape"
   id="svg2"
   version="1.1"
   inkscape:version="0.48.5 r10040"
   width="274.13278"
   height="276.4505"
   sodipodi:docname="+.svg"
   inkscape:export-filename="C:\Users\David\Dropbox\Third Eye Team\Archivo\Scans\+.png"
   inkscape:export-xdpi="157.38342"
   inkscape:export-ydpi="157.38342">
  <metadata
     id="metadata8">
    <rdf:RDF>
      <cc:Work
         rdf:about="">
        <dc:format>image/svg+xml</dc:format>
        <dc:type
           rdf:resource="http://purl.org/dc/dcmitype/StillImage" />
        <dc:title />
      </cc:Work>
    </rdf:RDF>
  </metadata>
  <defs
     id="defs6" />
  <sodipodi:namedview
     pagecolor="#000000"
     bordercolor="#666666"
     borderopacity="1"
     objecttolerance="10"
     gridtolerance="10"
     guidetolerance="10"
     inkscape:pageopacity="0.50196078"
     inkscape:pageshadow="2"
     inkscape:window-width="1280"
     inkscape:window-height="706"
     id="namedview4"
     showgrid="false"
     inkscape:zoom="1.7688518"
     inkscape:cx="137.06639"
     inkscape:cy="138.22524"
     inkscape:window-x="-8"
     inkscape:window-y="-8"
     inkscape:window-maximized="1"
     inkscape:current-layer="layer2"
     showguides="true"
     inkscape:guide-bbox="true"
     fit-margin-top="0"
     fit-margin-left="0"
     fit-margin-right="0"
     fit-margin-bottom="0" />
  <g
     inkscape:groupmode="layer"
     id="layer4"
     inkscape:label="Fondo"
     style="display:none"
     transform="translate(-11.942186,-11.633878)"
     sodipodi:insensitive="true">
    <path
       style="opacity:0.4;fill:#de8787;stroke:#000000;stroke-width:1px;stroke-linecap:butt;stroke-linejoin:miter;stroke-opacity:1"
       d="m -18.219929,-13.20926 0,330.56157 333.164419,0 0,-330.56157 z"
       id="path3806"
       inkscape:connector-curvature="0" />
  </g>
  <g
     inkscape:groupmode="layer"
     id="layer7"
     inkscape:label="Relleno Brocha"
     transform="translate(-11.942186,-11.633878)" />
  <g
     inkscape:groupmode="layer"
     id="layer6"
     inkscape:label="Relleno Pata"
     style="display:inline"
     transform="translate(-11.942186,-11.633878)" />
  <g
     inkscape:groupmode="layer"
     id="layer3"
     inkscape:label="Contorno Brocha"
     style="display:inline"
     transform="translate(-11.942186,-11.633878)" />
  <g
     inkscape:groupmode="layer"
     id="layer1"
     inkscape:label="Contorno pata"
     style="display:inline"
     transform="translate(-11.942186,-11.633878)" />
  <g
     inkscape:groupmode="layer"
     id="layer2"
     inkscape:label="Contorno circulo"
     style="display:inline"
     transform="translate(-11.942186,-11.633878)">
    <path
       style="opacity:0.5;fill:#000000;fill-opacity:1;stroke:none"
       d="m 124.26321,179.13508 -5.84006,11.84439 c 2.17854,5.0544 2.53786,3.82559 7.06705,1.75797 7.89092,-6.12805 16.30692,-12.33111 25.62698,-18.66332 l -27.50281,-44.23938 -30.944701,19.9484 2.331056,4.33675 25.201655,-7.17325 -15.21411,21.40358 6.57929,10.83298 z"
       id="path3815"
       inkscape:connector-curvature="0"
       sodipodi:nodetypes="ccccccccccc" />
    <path
       style="opacity:0.5;fill:#ffffff;fill-opacity:1;stroke:none"
       d="m 203.41248,101.89154 c -2.4037,-0.5363 -6.29584,0.53841 -9.11404,3.3068 -8.74906,8.12584 -16.94762,14.77547 -24.15728,21.24431 -6.72315,5.70901 -12.25683,4.46447 -16.21558,1.35036 -2.68546,-2.32804 -4.40864,-5.19233 -6.16198,-8.86896 -1.7559,-2.5342 -1.78723,-4.02972 -5.58986,-0.81884 l -3.25741,2.04997 28.64556,44.24672 4.36615,-2.31495 c 1.22514,-0.79863 2.00662,-1.61944 0.59472,-2.54992 -0.63173,-1.99902 -4.0126,-6.48628 -5.43007,-9.14303 -5.60502,-8.53548 0.32972,-15.06152 6.07747,-17.48145 l 29.09518,-11.60685 c 8.2692,-2.91547 12.84115,-16.29246 1.14714,-19.41416 z m -3.31873,6.07721 c 3.43268,0.0387 6.52433,3.03753 2.375,6.84375 -5.497,2.46608 -8.95413,-0.85689 -3.84375,-6.6875 0.48481,-0.12152 0.97837,-0.16178 1.46875,-0.15625 z"
       id="path3817"
       inkscape:connector-curvature="0"
       sodipodi:nodetypes="ccccccccccccccsccs" />
    <path
       style="opacity:0.5;fill:#000000;fill-opacity:1;stroke:none;display:inline"
       d="m 117.52675,206.90481 c 0.20517,9.20529 2.20626,19.84238 0.44958,20.12577 -1.79185,-0.51673 -2.82436,-8.57788 -0.44958,-20.12577 z"
       id="path3015"
       inkscape:connector-curvature="0"
       sodipodi:nodetypes="ccc" />
    <path
       style="opacity:0.5;fill:#ffffff;fill-opacity:1;stroke:none;display:inline"
       d="m 118.14377,236.8595 c 25.0076,24.20444 45.71145,26.16081 72.70791,-10.72364 27.35317,-45.60031 39.71102,-85.0764 32.65936,-134.123321 C 219.96188,68.717592 189.39641,111.09869 169.42994,69.559277 137.34711,10.791578 135.12913,117.14081 93.054018,87.467984 84.473639,79.334138 71.295131,77.397229 66.587228,96.240969 62.897122,152.03637 85.06185,203.07774 118.14377,236.8595 z"
       id="path3812"
       inkscape:connector-curvature="0"
       sodipodi:nodetypes="ccccccc" />
    <path
       style="opacity:0.5;fill:#000000;stroke:none;display:inline"
       d="m 125.98951,121.24975 -39.333068,25.37602 c -1.716253,1.07362 -1.26212,2.14724 -0.766871,3.22086 l 6.441717,10.1227 15.695072,-4.42666 -10.173599,13.01561 10.276069,17.17792 7.23545,-0.81494 -3.24772,6.48978 4.44786,7.82209 c 2.08386,4.85072 19.53578,-7.6355 19.53578,-7.6355 l 22.79551,-16.29088 -32.28069,-53.34738 -3.86301,4.77586 29.41347,47.54597 -18.22965,13.00698 c -4.56202,3.41173 -13.48247,11.07317 -14.76516,7.02263 l -1.55662,-3.43315 5.30858,-10.94226 -11.95863,0.13446 -6.9247,-11.79201 14.29756,-20.01308 -23.679759,6.79425 -3.194493,-5.54915 37.152322,-23.97532 z"
       id="path3785"
       inkscape:connector-curvature="0"
       sodipodi:nodetypes="cccccccccccccccccccccccccc" />
    <path
       style="opacity:0.5;fill:#000000;stroke:none;display:inline"
       d="m 135.66977,115.79991 -3.82023,2.29811 33.7566,52.7357 10.73675,-7.15783 c 2.19939,-1.80753 2.16104,-3.61507 0.97607,-5.4226 l -6.39867,-9.97758 c -3.26509,-6.47008 0.15673,-9.26236 4.98879,-11.27901 l 25.21853,-9.86475 c 9.94858,-4.45708 13.90911,-9.97956 14.2939,-15.06221 1.92547,-11.70968 -12.06286,-20.560355 -23.09022,-11.76299 l -22.54601,21.16564 c -5.46459,4.88429 -10.68909,7.13731 -15.03068,0.92025 l -5.07512,-8.94912 c -1.56753,-2.93442 -4.6817,-3.26335 -8.11506,-0.86683 l -7.82209,4.60122 3.57817,3.62148 5.87519,-3.79836 c 1.95436,-1.49768 2.31185,-1.36127 3.7348,-0.20193 l 4.13344,7.59751 c 7.3232,9.21968 14.62538,5.89879 20.30771,0.71504 l 23.59566,-20.79197 c 11.36463,-9.562392 25.09438,7.78998 7.5226,17.31466 l -28.38383,11.11332 c -7.39264,3.25682 -11.37995,9.35356 -6.93906,17.09897 l 5.67485,9.44567 c 0.99196,0.98552 1.2178,2.04215 -0.0263,2.65055 l -5.30379,2.82401 z"
       id="path3787"
       inkscape:connector-curvature="0"
       sodipodi:nodetypes="cccccccccccccccccccccccccccc" />
    <path
       style="opacity:0.5;fill:#000000;stroke:none;display:inline"
       d="m 197.32371,107.05599 1.67313,2.60133 c -1.6945,1.67843 -1.77803,2.72636 -0.20738,4.17867 1.51985,0.95425 2.59041,0.87102 3.62943,-0.48965 1.0454,-1.48122 1.04277,-2.42041 -0.37388,-3.88514 -0.87144,-0.67679 -1.72517,-0.91549 -3.05291,0.18746 l -1.78291,-2.35135 c 1.6757,-1.83111 4.26924,-1.56685 6.49884,-0.53056 2.47918,1.60007 3.06868,4.61126 1.25161,8.1566 -1.72626,2.75435 -5.51528,2.89078 -7.80951,1.38835 -2.6867,-2.44829 -3.68593,-6.27927 0.17355,-9.25571 z"
       id="path3791"
       inkscape:connector-curvature="0"
       sodipodi:nodetypes="cccccccccccc" />
    <path
       style="opacity:0.5;fill:#000000;stroke:none;display:inline"
       d="m 118.17485,200.30675 c -4.52286,8.88539 -9.66662,19.63195 -5.98605,28.53651 2.25164,5.11719 9.14467,5.40011 10.93904,-0.69018 2.21086,-5.36365 -3.5524,-20.56518 -5.00722,-27.84407 l -0.50041,4.25639 c 0.35884,5.04276 0.67691,12.17075 1.08699,15.14138 1.44392,10.61221 -2.47911,10.1988 -2.92928,0.11017 -0.12457,-2.70442 0.67934,-10.01225 2.10639,-15.13193 0.46424,-1.66551 -0.10193,-2.36411 0.29054,-4.37826 z"
       id="path3786"
       inkscape:connector-curvature="0"
       sodipodi:nodetypes="cccccccccc" />
    <path
       style="opacity:0.5;fill:#000000;stroke:none;display:inline"
       d="m 224.61493,86.213434 c 12.46604,59.806406 -13.25545,109.330636 -32.17791,139.661266 -9.03461,13.06023 -17.46424,21.4235 -25.6346,25.91446 -12.80389,7.03787 -24.97105,4.56594 -37.83202,-4.24191 C 117.88255,240.70849 107.23362,228.85082 97.335476,215.85837 85.449338,196.97847 74.928025,175.64409 69.359163,154.45913 56.155331,104.37107 64.527139,65.980782 93.700826,85.357613 134.24413,118.22272 135.01792,0.30377884 173.32492,72.853193 190.4013,104.35186 219.01371,70.109968 224.84287,87.62835 l 6.93284,-3.522335 c -8.40918,-29.13808 -38.11367,13.002912 -51.08682,-15.925303 -12.28871,-32.357054 -39.69418,-46.22891 -57.7138,-4.039331 -7.0842,16.103745 -16.47187,18.967538 -25.232383,12.189618 -30.266074,-20.396856 -42.063896,6.07797 -44.030296,34.759241 -0.613986,8.95539 0.929786,22.92295 1.969872,30.94892 4.298523,18.90663 6.595238,26.93297 11.795127,39.3773 5.240922,12.54253 12.212751,24.69997 23.481746,42.31258 7.779738,10.44138 15.297934,18.72458 22.544374,25.08744 35.94627,31.56325 65.20557,15.873 86.532,-18.03728 31.48272,-52.75477 44.57712,-99.9268 31.71036,-147.132694 z"
       id="path2983"
       inkscape:connector-curvature="0"
       sodipodi:nodetypes="ccccccccccccccccccccc" />
    <path
       style="fill:#ffffff;fill-opacity:1;stroke:none"
       d="m 35.933654,70.633368 10.666864,6.867475 C 23.946854,109.87106 19.431351,140.2026 26.152789,174.3185 c 6.69507,35.44674 26.688729,60.90971 45.871739,76.46088 18.273373,13.89062 36.611522,24.88245 69.940952,26.62257 36.82511,1.67284 61.49068,-9.05066 85.15646,-27.68078 28.45894,-24.08582 46.49183,-53.0596 48.59053,-95.22102 C 276.8818,121.07693 266.76995,97.557984 251.48883,74.747967 236.04965,54.697212 220.02778,43.524245 196.57884,32.928923 175.58045,25.266035 155.7727,19.136508 125.83123,24.515603 88.087511,31.593555 64.61805,53.14952 44.929693,79.787445 L 35.926402,70.836528 C 57.641723,39.81413 87.221335,21.0331 123.71728,13.807253 c 26.3398,-4.43966 53.38639,-2.344597 78.45397,8.764227 21.19706,9.11608 41.07169,23.078565 57.67426,45.917257 15.39814,23.583843 27.05019,47.927303 26.18415,86.111583 -1.94432,38.93881 -17.37779,75.09271 -51.13392,102.97966 -28.54327,23.34322 -63.3872,32.16649 -94.3568,30.25071 C 114.74286,286.32048 88.663621,277.70731 65.124182,259.45298 36.832731,236.12497 21.29852,208.60877 14.553181,178.20719 6.172976,128.72186 19.213871,97.98844 35.933654,70.633368 z"
       id="path3795"
       inkscape:connector-curvature="0"
       sodipodi:nodetypes="ccccccccccccccccccccc" />
  </g>
</svg>
