<?xml version="1.0" encoding="UTF-8" standalone="no"?>
<!-- Created with Inkscape (http://www.inkscape.org/) -->

<svg
   xmlns:dc="http://purl.org/dc/elements/1.1/"
   xmlns:cc="http://creativecommons.org/ns#"
   xmlns:rdf="http://www.w3.org/1999/02/22-rdf-syntax-ns#"
   xmlns:svg="http://www.w3.org/2000/svg"
   xmlns="http://www.w3.org/2000/svg"
   xmlns:sodipodi="http://sodipodi.sourceforge.net/DTD/sodipodi-0.dtd"
   xmlns:inkscape="http://www.inkscape.org/namespaces/inkscape"
   id="svg2"
   version="1.1"
   inkscape:version="0.48.5 r10040"
   width="2726.2715"
   height="2097.8804"
   sodipodi:docname="loading.svg"
   inkscape:export-filename="C:\Users\David\Dropbox\Third Eye Team\Archivo\Scans\Boton Multiproposito.png"
   inkscape:export-xdpi="157.38342"
   inkscape:export-ydpi="157.38342">
  <metadata
     id="metadata8">
    <rdf:RDF>
      <cc:Work
         rdf:about="">
        <dc:format>image/svg+xml</dc:format>
        <dc:type
           rdf:resource="http://purl.org/dc/dcmitype/StillImage" />
        <dc:title />
      </cc:Work>
    </rdf:RDF>
  </metadata>
  <defs
     id="defs6" />
  <sodipodi:namedview
     pagecolor="#ffffff"
     bordercolor="#666666"
     borderopacity="1"
     objecttolerance="10"
     gridtolerance="10"
     guidetolerance="10"
     inkscape:pageopacity="0"
     inkscape:pageshadow="2"
     inkscape:window-width="1280"
     inkscape:window-height="706"
     id="namedview4"
     showgrid="false"
     inkscape:zoom="0.23309242"
     inkscape:cx="1363.1357"
     inkscape:cy="1048.9401"
     inkscape:window-x="-8"
     inkscape:window-y="-8"
     inkscape:window-maximized="1"
     inkscape:current-layer="layer1"
     showguides="true"
     inkscape:guide-bbox="true"
     fit-margin-top="0"
     fit-margin-left="0"
     fit-margin-right="0"
     fit-margin-bottom="0" />
  <g
     inkscape:groupmode="layer"
     id="layer1"
     inkscape:label="Nido Contorno "
     style="display:inline"
     transform="translate(-924.52598,-608.77412)"
     sodipodi:insensitive="true">
    <g
       id="g3856">
      <path
         sodipodi:nodetypes="cccccccccccccccccccccccccccccccccccccccccccccc"
         inkscape:connector-curvature="0"
         id="path2988"
         d="m 1509.0184,1800.5521 -8.2822,-34.7852 61.2883,16.5644 c 92.1656,191.4321 319.7712,263.8412 554.908,329.6319 102.6508,-52.2861 234.0586,-94.9866 301.4724,-159.0184 l 29.816,4.9693 c 18.2101,-1.476 37.6592,-2.5389 43.0674,-8.2822 13.8037,7.2614 27.6074,11.1737 41.4111,33.1288 l -54.6626,71.227 c -9.3865,-5.2454 -18.773,1.2019 -28.1595,6.6258 l -155.7055,101.0429 c 130.7507,13.4736 257.918,25.1554 384.2945,36.4418 13.9777,10.085 27.6392,18.1834 39.7546,16.5644 62.1972,40.9122 40.5034,138.3779 -36.4418,145.7668 -19.3383,-6.9446 -35.1851,-16.275 -44.7239,-24.8466 -129.6118,-13.1278 -255.751,-36.6733 -380.9816,-62.9448 -68.8001,-24.2903 -138.4916,-47.0948 -220.3067,-49.6932 -87.6074,-22.0246 -179.0841,-56.947 -273.3129,-101.043 -85.8915,-41.611 -165.7743,-97.2425 -245.1534,-154.049 -62.1996,-63.8963 -44.8607,-88.1408 -92.7607,-122.5767 l 54.6626,-76.1963 28.1595,3.3128 13.2515,23.1902 c -19.3829,5.8994 -29.1852,14.536 -33.1288,24.8466 l 14.9079,67.9142 c 54.1382,66.2021 119.9886,108.98 187.178,149.0797 l 180.5521,91.1043 c 72.3192,30.9205 143.3113,63.2761 236.8712,71.227 92.7012,31.4884 184.4754,54.6348 274.9693,66.2577 66.244,9.3899 125.7534,20.4635 165.6442,36.4417 l 84.4785,4.9693 28.1595,11.5951 c 62.4786,32.7833 108.7865,-69.4737 14.908,-97.7301 -117.4409,-0.8698 -208.0607,-8.4449 -309.7546,-13.2515 -45.7991,-11.5689 -80.6426,-13.2777 -104.3559,-4.9693 l -38.0981,-21.5338 13.2515,-33.1288 c 9.0147,3.7448 9.2138,13.3667 36.4417,4.9693 61.0328,-50.6013 106.3168,-82.304 157.362,-120.9202 l 34.7853,-13.2515 c 76.0445,-46.2332 6.0112,-52.3875 -16.5644,-36.4418 -82.7899,45.8175 -189.2917,99.539 -298.1595,154.0491 l -53.0062,-1.6564 c -120.3701,-26.5131 -244.668,-72.6653 -369.3865,-120.9203 l -173.9264,-145.7668 z"
         style="fill:#000000;stroke:none" />
      <path
         sodipodi:nodetypes="ccccc"
         inkscape:connector-curvature="0"
         id="path3758"
         d="m 2688.6759,2219.8141 c -31.475,22.1772 -55.1911,48.4147 -57.3927,93.7025 l 39.2379,21.6687 c -29.3485,-54.2186 9.1581,-76.8766 45.0943,-100.7302 z"
         style="fill:#000000;stroke:none" />
      <path
         sodipodi:nodetypes="ccccc"
         inkscape:connector-curvature="0"
         id="path3760"
         d="m 2446.2207,1973.8451 c -1.0394,22.343 3.1879,42.3819 26.9395,53.8789 l -24.5969,11.1272 c -33.7702,-19.4346 -29.0337,-36.0166 -25.7682,-52.7077 z"
         style="fill:#000000;stroke:none" />
      <path
         sodipodi:nodetypes="ccccccccccccccc"
         inkscape:connector-curvature="0"
         id="path3762"
         d="m 2415.7674,2076.3322 c 149.7672,-37.1175 301.8523,-81.1674 369.5394,-142.4365 59.0797,-23.5358 118.1595,-63.1942 177.2392,-101.8712 l 36.4417,-26.503 39.7546,-0.8283 c 36.3282,2.2895 52.1755,37.8606 63.773,80.3375 l -154.8773,104.3558 c -123.3868,72.4841 -251.3574,141.5303 -387.2174,204.6594 l -93.7025,-5.8564 c 169.113,-60.0387 327.8838,-135.5907 472.0264,-233.0849 45.2273,-20.2758 87.1097,-46.1264 122.9845,-81.9897 -6.7207,-26.8644 -17.5005,-50.0755 -55.0502,-49.1938 -88.6919,77.6571 -195.9296,144.4958 -322.1024,200.289 -105.1209,46.3228 -213.0782,77.0456 -324.4448,89.0174 z"
         style="fill:#000000;stroke:none" />
      <path
         sodipodi:nodetypes="cccccccccccccccc"
         inkscape:connector-curvature="0"
         id="path3764"
         d="m 2085.4602,2221.2883 c -51.3922,42.964 -108.209,71.833 -177.2393,86.135 -39.7177,2.3004 -93.2394,21.856 -140.7976,33.9571 l -44.7239,26.503 c -113.1204,44.2206 -32.032,152.3093 96.9018,81.9939 45.2617,-17.1346 98.4394,-24.3741 152.3927,-30.6442 158.1397,-27.5551 252.218,-80.1777 308.9263,-147.4233 l 72.0553,13.2515 c -38.5002,35.3877 -122.8988,76.5127 -213.681,118.4356 -12.8106,0.7541 -29.3925,8.4245 -48.0368,19.8773 l -96.9019,28.9878 c -66.6899,10.145 -130.6373,22.484 -186.3497,41.411 -129.6771,29.9419 -235.1539,-38.7445 -131.6871,-155.7055 l 77.0246,-23.1902 c 104.1262,-24.7204 217.3795,-34.5056 298.9877,-96.0736 z"
         style="fill:#000000;stroke:none" />
      <path
         sodipodi:nodetypes="ccccc"
         inkscape:connector-curvature="0"
         id="path3766"
         d="m 1715.2454,2361.2577 c 42.5693,14.0467 86.0628,25.4234 109.3252,95.2454 l 38.9263,-13.2516 c -19.7389,-39.5338 -47.5507,-76.9149 -100.2147,-107.6687 z"
         style="fill:#000000;stroke:none" />
      <path
         sodipodi:nodetypes="cccccccccc"
         inkscape:connector-curvature="0"
         id="path3768"
         d="m 2751.3395,1572.0956 2.3425,69.1056 c 35.2694,53.2719 53.1638,100.7521 79.6472,151.0953 -4.3896,51.2051 -17.479,100.6701 -37.481,148.7527 l 48.0225,-26.9395 17.5692,-80.8184 25.7682,53.8789 39.8236,-23.4256 c -54.6724,-67.4478 -78.9773,-131.0997 -110.1005,-195.6039 z"
         style="fill:#000000;stroke:#000000;stroke-width:1px;stroke-linecap:butt;stroke-linejoin:miter;stroke-opacity:1" />
      <path
         sodipodi:nodetypes="cccccccccccccccccccccccccccccccccc"
         inkscape:connector-curvature="0"
         id="path3770"
         d="m 2733.7703,1437.3983 66.763,-3.5139 163.9793,45.68 c 14.6084,24.3732 12.6584,46.6766 2.3426,67.9343 -42.0564,-0.7934 -86.007,-14.847 -131.1835,-37.481 l -92.5312,-26.9395 2.3426,28.1108 c 35.3683,10.4239 40.9935,17.1298 52.7076,24.5969 l 121.8133,216.687 43.3374,32.7959 174.5209,-25.7682 10.5415,33.9672 c -23.3075,9.7607 -59.4914,19.5213 -91.3599,29.282 l 19.9117,29.282 69.1056,-25.7682 44.5087,-17.5692 -14.0554,-52.7076 c 5.5765,-6.9004 -11.3041,-17.0089 -26.9394,-26.9395 -54.8691,13.45 -109.1531,27.7191 -179.206,19.9118 -59.0079,-74.5983 -84.6412,-132.5092 -120.642,-195.604 l 113.6143,23.4256 c 18.0773,1.8977 36.2772,5.0539 50.3651,-33.9671 l 2.3425,-67.9343 c -75.7832,-41.163 -130.9193,-46.1938 -195.6039,-67.9343 l -45.68,-2.3426 c 26.7092,-28.7081 57.75,-55.9722 103.0727,-78.4758 l -23.4256,-24.5969 -32.7959,22.2543 c -24.3394,-25.8468 -27.9038,-44.9313 -36.3097,-65.5917 l -21.083,-14.0554 -14.0554,28.1107 33.9671,78.4759 -63.2491,31.6246 z"
         style="fill:#000000;stroke:none" />
      <path
         sodipodi:nodetypes="cccccccccc"
         inkscape:connector-curvature="0"
         id="path3772"
         d="m 3009.7546,1762.454 c 23.3154,-24.6637 40.1719,-46.5592 48.0368,-64.6012 -150.483,-351.3022 291.845,-355.5815 593.0061,-579.7546 -211.5627,198.2321 -102.9948,558.1542 -561.5337,607.9141 l 24.447,-38.2572 c 283.9528,-6.615 349.6357,-298.6864 424.0105,-458.9256 -183.1361,96.4629 -577.1044,171.1861 -450.1139,444.1766 l 36.4417,13.2516 -54.6626,69.5705 z"
         style="fill:#000000;stroke:none" />
      <path
         sodipodi:nodetypes="cccccccccc"
         inkscape:connector-curvature="0"
         id="path3776"
         d="m 3073.4418,1896.5405 c 0.137,68.666 3.9519,134.2671 40.9948,172.1783 4.1353,19.9321 7.4631,40.4231 -28.1107,87.8461 -55.1583,19.5507 -106.8674,13.2334 -155.7804,-14.0554 l -12.8841,-145.2388 42.1661,-28.1108 c -5.0446,42.5635 -6.3123,85.9662 16.398,134.6974 22.5689,62.812 117.4618,35.9172 94.8737,-14.0554 -41.7304,-31.9497 -42.2838,-101.3331 -51.5363,-162.8081 z"
         style="fill:#000000;stroke:none" />
      <path
         sodipodi:nodetypes="ccccc"
         inkscape:connector-curvature="0"
         id="path3778"
         d="m 2976.2255,2137.8244 c 25.9091,-24.0656 58.4599,-41.4894 103.0727,-46.8512 l -19.9118,-29.2821 c -49.0749,4.77 -79.0647,23.1724 -106.5866,43.3374 z"
         style="fill:#000000;stroke:none" />
      <path
         inkscape:connector-curvature="0"
         id="path3780"
         d="m 2819.2738,2051.1496 -73.7907,202.6317 -30.4533,-25.7682 37.481,-137.0399 z"
         style="fill:#000000;stroke:#000000;stroke-width:1px;stroke-linecap:butt;stroke-linejoin:miter;stroke-opacity:1" />
      <path
         sodipodi:nodetypes="ccccc"
         inkscape:connector-curvature="0"
         id="path3782"
         d="m 2774.7651,2143.6808 154.6091,-118.2994 5.8564,45.68 c -63.505,35.7307 -119.2093,83.1625 -176.8634,127.6696 z"
         style="fill:#000000;stroke:#000000;stroke-width:1px;stroke-linecap:butt;stroke-linejoin:miter;stroke-opacity:1" />
      <path
         sodipodi:nodetypes="ccccc"
         inkscape:connector-curvature="0"
         id="path3784"
         d="m 2938.7445,2110.8849 c -117.4606,78.5478 -90.1972,98.802 -196.7753,139.3825 l 3.5139,51.5364 c 79.6414,-62.2272 149.1149,-112.253 213.1731,-155.7804 z"
         style="fill:#000000;stroke:#000000;stroke-width:1px;stroke-linecap:butt;stroke-linejoin:miter;stroke-opacity:1" />
      <path
         sodipodi:nodetypes="cccccccccc"
         inkscape:connector-curvature="0"
         id="path3786"
         d="m 2862.6112,2205.7587 106.5866,7.0277 -9.3703,29.282 c -46.7396,-2.7888 -88.2784,-8.178 -128.8409,-14.0553 l -46.8513,36.3097 c 72.0676,7.289 136.8095,8.7174 193.2614,3.5138 23.5871,-21.5273 29.9503,-37.3133 35.1385,-52.7076 1.2876,-17.4089 -19.3713,-28.2338 -49.1938,-36.3097 l -46.8513,-10.5416 z"
         style="fill:#000000;stroke:#000000;stroke-width:1px;stroke-linecap:butt;stroke-linejoin:miter;stroke-opacity:1" />
      <path
         inkscape:connector-curvature="0"
         id="path3788"
         d="m 2900.0922,2264.3228 -44.5087,-1.1713 30.4533,76.1333 -38.6523,-74.962 -39.8235,-5.8564 76.1332,161.6368 66.7631,-10.5416 z"
         style="fill:#000000;stroke:#000000;stroke-width:1px;stroke-linecap:butt;stroke-linejoin:miter;stroke-opacity:1" />
      <path
         sodipodi:nodetypes="cccccccccc"
         inkscape:connector-curvature="0"
         id="path3790"
         d="m 2664.6647,2341.6273 c -35.0922,46.2333 -69.2164,91.7889 -134.6974,159.2943 -62.9236,86.5064 -105.3461,38.4221 -66.763,-57.3928 l 115.9568,-120.642 -64.4204,-15.2266 c -18.2516,45.8558 -53.3802,88.3363 -86.6748,131.1835 -34.8077,137.9281 50.8462,168.8916 118.2994,111.2717 l 160.4655,-179.206 0,-23.4257 z"
         style="fill:#000000;stroke:#000000;stroke-width:1px;stroke-linecap:butt;stroke-linejoin:miter;stroke-opacity:1" />
      <path
         sodipodi:nodetypes="ccccc"
         inkscape:connector-curvature="0"
         id="path3792"
         d="m 2443.2925,2473.9821 c 43.8902,1.5019 63.4397,25.4723 66.7631,64.4205 l 28.1107,-25.7683 c -3.3618,-46.4141 -42.3206,-67.586 -80.8184,-70.2768 z"
         style="fill:#000000;stroke:#000000;stroke-width:1px;stroke-linecap:butt;stroke-linejoin:miter;stroke-opacity:1" />
      <path
         inkscape:connector-curvature="0"
         id="path3794"
         d="m 2839.1856,2042.9506 25.7681,44.5087 -30.4533,19.9118 -24.5969,-52.7076 z"
         style="fill:#000000;stroke:#000000;stroke-width:1px;stroke-linecap:butt;stroke-linejoin:miter;stroke-opacity:1" />
      <path
         inkscape:connector-curvature="0"
         id="path3798"
         d="m 2904.7773,1997.2707 9.3703,58.564 -26.9395,16.398 -9.3703,-55.0502 z"
         style="fill:#000000;stroke:#000000;stroke-width:1px;stroke-linecap:butt;stroke-linejoin:miter;stroke-opacity:1" />
      <path
         inkscape:connector-curvature="0"
         id="path3800"
         d="m 2643.5816,2140.167 -29.282,62.0779 -46.8513,2.3425 29.2821,-40.9948 z"
         style="fill:#000000;stroke:#000000;stroke-width:1px;stroke-linecap:butt;stroke-linejoin:miter;stroke-opacity:1" />
      <path
         sodipodi:nodetypes="ccccccccccccc"
         inkscape:connector-curvature="0"
         id="path3802"
         d="m 2684.5764,2386.7217 66.7631,-19.3262 42.1661,-7.0277 24.5969,4.0995 9.3703,15.8123 -30.4534,79.6471 c -11.725,14.7411 -29.7327,20.6863 -49.1938,24.5969 -57.0057,3.547 -93.1169,38.2619 -202.046,60.9067 l 46.2656,-57.3928 c 52.9208,-11.4932 105.8799,-23.0307 178.6204,-57.3928 l 11.7128,-39.8236 c -36.0582,-5.5283 -73.7907,22.6448 -135.2829,32.2103 z"
         style="fill:#000000;stroke:#000000;stroke-width:1px;stroke-linecap:butt;stroke-linejoin:miter;stroke-opacity:1" />
      <path
         sodipodi:nodetypes="cccccccccccccccccc"
         inkscape:connector-curvature="0"
         id="path3804"
         d="m 2476.0884,2305.3176 c -78.4758,-2.9565 -156.9517,66.7788 -235.4275,137.0399 -58.4412,44.1183 -84.102,88.2365 -108.9292,132.3548 -22.5771,11.1195 -55.0397,51.8954 -86.6748,90.1886 l -29.282,4.6852 -48.0225,-16.398 -16.398,-37.481 25.7682,-26.9394 23.4256,-55.0502 50.3651,4.6851 c -29.3266,23.5888 -34.9581,38.2918 -39.8235,52.7076 l -18.7405,19.9118 c 5.6568,17.254 16.6011,22.1707 31.6246,17.5692 l 74.962,-73.7907 21.083,-31.6246 c 19.9196,-14.0835 37.0339,-33.1208 49.1938,-60.9066 65.5918,-60.5162 127.6914,-114.0481 196.7753,-181.5486 z"
         style="fill:#000000;stroke:#000000;stroke-width:1px;stroke-linecap:butt;stroke-linejoin:miter;stroke-opacity:1" />
      <path
         sodipodi:nodetypes="cccccc"
         inkscape:connector-curvature="0"
         id="path3806"
         d="m 2511.2268,2341.6273 c -33.2888,3.7495 -84.2227,64.8454 -128.8409,105.4153 l -23.4256,-7.0276 c 0.9536,-21.6387 57.4859,-73.5931 126.4983,-132.3548 l 38.6523,5.8564 z"
         style="fill:#000000;stroke:#000000;stroke-width:1px;stroke-linecap:butt;stroke-linejoin:miter;stroke-opacity:1" />
      <path
         sodipodi:nodetypes="ccccc"
         inkscape:connector-curvature="0"
         id="path3808"
         d="m 2429.2372,2473.9821 c -105.9975,-5.8649 -155.0044,16.657 -231.9137,-1.1713 l 38.6523,-32.7958 c 60.5808,10.9544 131.9507,3.9269 201.4603,0 z"
         style="fill:#000000;stroke:#000000;stroke-width:1px;stroke-linecap:butt;stroke-linejoin:miter;stroke-opacity:1" />
      <path
         sodipodi:nodetypes="ccccccccccc"
         inkscape:connector-curvature="0"
         id="path3810"
         d="m 2435.0936,2498.579 c -38.9817,22.3306 -103.0645,13.2849 -154.6092,19.9118 -38.391,15.0044 -108.1954,3.083 -166.3219,1.1713 -110.995,-9.2912 -230.4039,-16.6701 -275.2511,-40.9949 l -85.5035,14.0554 c 28.1145,6.6373 37.4338,13.2745 99.5589,19.9118 53.6276,24.0088 104.0068,25.2789 154.6091,28.1107 l 110.1005,17.5693 144.0675,-4.6852 173.3497,-14.0553 z"
         style="fill:#000000;stroke:#000000;stroke-width:1px;stroke-linecap:butt;stroke-linejoin:miter;stroke-opacity:1" />
      <path
         sodipodi:nodetypes="ccccccccc"
         inkscape:connector-curvature="0"
         id="path3812"
         d="m 2285.1696,2543.0877 26.9394,70.2769 c 32.4055,6.644 64.8109,18.3536 97.2164,37.481 5.7058,20.56 0.4806,25.8164 -9.3703,24.5969 l -80.8184,-22.2544 11.7128,39.8236 c 2.5007,23.8686 -13.9897,12.1289 -36.3097,-10.5415 l -49.1938,-133.5261 z"
         style="fill:#000000;stroke:#000000;stroke-width:1px;stroke-linecap:butt;stroke-linejoin:miter;stroke-opacity:1" />
      <path
         sodipodi:nodetypes="ccccc"
         inkscape:connector-curvature="0"
         id="path3814"
         d="m 2180.9255,2463.4406 -212.0018,-12.8841 106.5865,-30.4533 c 53.0343,10.8569 109.2591,-0.8578 137.0399,14.0554 z"
         style="fill:#000000;stroke:#000000;stroke-width:1px;stroke-linecap:butt;stroke-linejoin:miter;stroke-opacity:1" />
      <path
         sodipodi:nodetypes="ccccc"
         inkscape:connector-curvature="0"
         id="path3816"
         d="m 1919.816,2171.5951 c 17.7255,23.3723 26.6449,42.9705 88.6196,85.3067 l -33.1288,10.7669 c -56.9751,-34.496 -97.4985,-78.0588 -140.7976,-120.092 z"
         style="fill:#000000;stroke:#000000;stroke-width:1px;stroke-linecap:butt;stroke-linejoin:miter;stroke-opacity:1" />
      <path
         sodipodi:nodetypes="ccccccc"
         inkscape:connector-curvature="0"
         id="path3818"
         d="m 1965.3681,2270.1534 c -86.9097,1.6937 -150.6184,-52.2949 -216.1656,-101.8712 -45.0274,-36.4362 -74.7076,-75.9419 -97.7301,-116.7791 l -63.773,-48.0368 c 0,0 50.5214,97.73 75.368,123.4048 51.2008,65.0473 128.8154,119.5291 212.8528,171.4418 z"
         style="fill:#000000;stroke:#000000;stroke-width:1px;stroke-linecap:butt;stroke-linejoin:miter;stroke-opacity:1" />
      <path
         sodipodi:nodetypes="cccccccccccccc"
         inkscape:connector-curvature="0"
         id="path3820"
         d="m 1631.5947,2059.3486 c -84.0011,79.6562 -84.6863,290.8641 -114.7856,455.6284 -15.5022,54.242 -92.8219,48.6606 -204.9742,9.3702 l -18.7405,-48.0225 c 23.7942,-13.5941 46.3614,-52.938 62.0779,-98.3876 l 65.5918,-186.2337 84.3322,-258.8532 32.7959,35.1384 -81.9897,236.5988 -94.8738,263.5383 c -63.6908,27.0205 57.9179,61.489 108.9292,38.6523 13.9579,-136.1506 35.3801,-270.6424 77.3045,-400.5782 l 48.0226,-97.2163 z"
         style="fill:#000000;stroke:#000000;stroke-width:1px;stroke-linecap:butt;stroke-linejoin:miter;stroke-opacity:1" />
      <path
         sodipodi:nodetypes="ccccc"
         inkscape:connector-curvature="0"
         id="path3822"
         d="m 1358.6862,2462.2693 c 16.049,-52.1823 75.1227,35.4658 113.6142,56.2215 l 5.8564,-53.8789 c -28.0777,-48.1878 -64.61,-54.1022 -101.9014,-56.2215 z"
         style="fill:#000000;stroke:#000000;stroke-width:1px;stroke-linecap:butt;stroke-linejoin:miter;stroke-opacity:1" />
      <path
         sodipodi:nodetypes="ccccc"
         inkscape:connector-curvature="0"
         id="path3824"
         d="m 1553.1188,2222.1567 c 95.009,36.6989 180.8972,52.4196 244.7978,17.5692 l 43.3374,25.7682 c -126.7051,45.1019 -187.2879,1.1646 -299.848,9.3702 z"
         style="fill:#000000;stroke:#000000;stroke-width:1px;stroke-linecap:butt;stroke-linejoin:miter;stroke-opacity:1" />
      <path
         sodipodi:nodetypes="ccccc"
         inkscape:connector-curvature="0"
         id="path3826"
         d="m 1566.0029,2144.8521 c 40.0997,14.333 89.1903,17.617 141.725,16.3979 l -23.4256,-30.4533 c -35.6844,-0.015 -69.8608,-5.1594 -101.9014,-17.5692 z"
         style="fill:#000000;stroke:#000000;stroke-width:1px;stroke-linecap:butt;stroke-linejoin:miter;stroke-opacity:1" />
      <path
         inkscape:connector-curvature="0"
         id="path3828"
         d="m 1765.1207,2273.693 35.1385,40.9949 -31.6246,5.8564 -37.481,-43.3374 z"
         style="fill:#000000;stroke:#000000;stroke-width:1px;stroke-linecap:butt;stroke-linejoin:miter;stroke-opacity:1" />
      <path
         sodipodi:nodetypes="ccccc"
         inkscape:connector-curvature="0"
         id="path3830"
         d="m 1664.3905,2273.693 c 7.5787,18.9625 20.6084,38.8335 46.8513,60.9067 l -38.6523,17.5692 c -6.5384,-28.1108 -36.953,-56.2215 -67.9343,-84.3323 z"
         style="fill:#000000;stroke:#000000;stroke-width:1px;stroke-linecap:butt;stroke-linejoin:miter;stroke-opacity:1" />
      <path
         sodipodi:nodetypes="ccccc"
         inkscape:connector-curvature="0"
         id="path3832"
         d="m 1537.8922,2308.8315 c 32.5314,36.8386 73.3047,57.1935 118.2994,69.1056 l -12.8841,32.7958 -115.9569,-46.8512 z"
         style="fill:#000000;stroke:#000000;stroke-width:1px;stroke-linecap:butt;stroke-linejoin:miter;stroke-opacity:1" />
      <path
         sodipodi:nodetypes="cccccccccccccccc"
         inkscape:connector-curvature="0"
         id="path3834"
         d="m 1408.8037,2256.0736 c -64.3595,17.5657 -132.5412,23.6649 -201.2577,28.1595 -24.3045,-14.7986 -23.256,-27.0618 -26.5031,-39.7546 50.5429,-16.0123 123.4519,-32.0245 195.4602,-48.0368 8.3077,-23.8922 -2.2388,-79.8366 -15.7362,-140.7975 13.3241,-12.6128 28.3808,-16.5622 43.8957,-18.2209 15.3789,21.5771 30.3718,43.7975 52.1779,54.6626 l 14.0797,-31.4724 c -26.3723,-21.1324 -35.1328,-40.6005 -48.0368,-60.4601 -30.6013,19.9522 -69.2122,25.8877 -108.4969,30.6441 l 29.816,133.3436 c -69.7449,17.1601 -140.0822,37.2818 -212.0246,65.4295 l 27.3313,67.9141 c 13.1066,25.6466 43.8872,27.1923 81.1656,19.8773 29.1345,-12.718 77.1634,-18.4749 148.2516,-15.7362 z"
         style="fill:#000000;stroke:#000000;stroke-width:1px;stroke-linecap:butt;stroke-linejoin:miter;stroke-opacity:1" />
      <path
         sodipodi:nodetypes="ccccccccccccccccccccc"
         inkscape:connector-curvature="0"
         id="path3836"
         d="m 1464.1015,1866.0872 c -58.7967,24.7628 -111.8775,66.0757 -162.8081,113.6143 -71.4464,53.0981 -138.108,106.1961 -190.9188,159.2942 -43.0697,-14.6131 -85.3624,-33.1112 -125.32713,-63.2492 33.38153,-58.9667 -20.2046,-36.4012 147.58143,-221.3721 l -188.57627,-71.4482 c 19.09302,-38.7607 47.02619,-70.4492 97.21637,-84.3322 l 133.526,60.9066 c 30.772,17.8799 60.1961,19.585 87.8461,0 61.2295,-35.8004 129.7113,-70.3921 209.6593,-103.0727 l 71.4482,9.3702 c -102.0321,44.8991 -222.5088,89.7982 -290.4777,134.6973 -52.705,33.1392 -138.6445,-42.9203 -210.8307,-73.7907 -25.4878,6.9232 -44.59266,17.3924 -42.1661,39.8236 57.1531,20.7246 110.9932,29.302 176.8635,81.9897 -33.0106,31.7494 -85.9681,111.3714 -133.5261,178.0347 -17.0495,25.5949 -19.1189,46.1966 10.5416,56.2215 l 42.1661,9.3703 230.7424,-192.0902 119.4706,-72.6194 z"
         style="fill:#000000;stroke:#000000;stroke-width:1px;stroke-linecap:butt;stroke-linejoin:miter;stroke-opacity:1" />
      <path
         sodipodi:nodetypes="cccccc"
         inkscape:connector-curvature="0"
         id="path3838"
         d="m 1441.8471,1863.7446 23.4256,44.5087 c 7.7548,35.5219 22.5844,46.2819 36.3098,60.9066 l -11.7128,39.8236 c -39.9304,-43.5178 -50.7797,-90.0157 -90.1887,-120.642 z"
         style="fill:#000000;stroke:#000000;stroke-width:1px;stroke-linecap:butt;stroke-linejoin:miter;stroke-opacity:1" />
      <path
         inkscape:connector-curvature="0"
         id="path3840"
         d="m 1370.399,1908.2533 58.564,106.5866 -36.3097,9.3702 -56.2215,-94.8737 z"
         style="fill:#000000;stroke:#000000;stroke-width:1px;stroke-linecap:butt;stroke-linejoin:miter;stroke-opacity:1" />
      <path
         inkscape:connector-curvature="0"
         id="path3842"
         d="m 1309.4924,1951.5907 84.3322,73.7907 -46.8513,8.199 -51.5363,-56.2215 z"
         style="fill:#000000;stroke:#000000;stroke-width:1px;stroke-linecap:butt;stroke-linejoin:miter;stroke-opacity:1" />
      <path
         sodipodi:nodetypes="ccccc"
         inkscape:connector-curvature="0"
         id="path3844"
         d="m 1239.2155,2019.525 96.045,65.5918 7.0277,42.1661 c -43.1704,-15.838 -72.0423,-56.5607 -121.8132,-93.7025 z"
         style="fill:#000000;stroke:#000000;stroke-width:1px;stroke-linecap:butt;stroke-linejoin:miter;stroke-opacity:1" />
      <path
         sodipodi:nodetypes="cccccccc"
         inkscape:connector-curvature="0"
         id="path3846"
         d="m 1118.5735,1887.1702 c -50.669,-16.8305 -105.9258,-10.722 -162.80806,3.5139 l -30.45331,-25.7682 c 27.22175,-30.8077 44.17923,-58.1939 43.3374,-79.6471 l 51.53637,17.5692 -38.65228,44.5087 c 45.48958,-10.3015 104.23698,-4.6936 165.15068,3.5138 z"
         style="fill:#000000;stroke:#000000;stroke-width:1px;stroke-linecap:butt;stroke-linejoin:miter;stroke-opacity:1" />
      <path
         sodipodi:nodetypes="cccccccccc"
         inkscape:connector-curvature="0"
         id="path3848"
         d="m 1161.9109,1616.6043 1.1713,32.7959 c 26.2231,19.4535 60.5034,79.1927 92.5312,127.6696 l 52.7077,-30.4533 -43.3374,-59.7353 18.7405,-55.0503 -31.6246,-42.1661 c -2.2991,25.9658 -5.5548,51.4106 -18.7405,71.4482 l -31.6246,-29.2821 z"
         style="fill:#000000;stroke:#000000;stroke-width:1px;stroke-linecap:butt;stroke-linejoin:miter;stroke-opacity:1" />
      <path
         sodipodi:nodetypes="cccccccccccccccc"
         inkscape:connector-curvature="0"
         id="path3850"
         d="m 1602.5994,1679.8535 -222.8302,-23.4256 c -36.7309,-2.9457 -42.9457,-27.2527 -49.1938,-51.5364 21.5455,-32.1667 16.6545,-44.5059 14.0554,-58.5641 33.0445,-6.2817 67.0929,-9.5519 97.2163,-24.5969 -14.4458,-41.6107 -28.8916,-60.5989 -43.3374,-67.9343 11.3224,-14.7554 22.6448,-28.4711 33.9672,-18.7405 20.4429,36.9435 44.847,67.5491 80.8184,79.6471 27.3602,13.4259 69.9429,43.8094 94.4696,43.068 l -1.9972,29.4167 -104.1852,-20.9483 c -46.0269,-10.3438 -53.452,0.7578 -73.7908,4.6851 l -38.6522,19.9118 c -27.2803,17.4506 -24.2476,30.5707 14.0553,38.6523 l 199.885,16.3979 z"
         style="fill:#000000;stroke:#000000;stroke-width:1px;stroke-linecap:butt;stroke-linejoin:miter;stroke-opacity:1" />
      <path
         inkscape:connector-curvature="0"
         id="path3852"
         d="m 1540.2347,1535.7859 72.2153,-54.0897 -4.5504,-23.5604 -100.4607,63.5947 z"
         style="fill:#000000;stroke:#000000;stroke-width:1px;stroke-linecap:butt;stroke-linejoin:miter;stroke-opacity:1"
         sodipodi:nodetypes="ccccc" />
      <path
         sodipodi:nodetypes="ccccccccccccc"
         inkscape:connector-curvature="0"
         id="path3854"
         d="m 1612.9302,1462.206 -94.9498,-36.5205 c -10.5918,-18.3484 -41.7819,-13.1559 -73.7907,-7.0277 -54.8837,-1.9452 -55.7195,-16.862 -32.7959,-37.481 l 62.0779,-51.5364 c 47.4788,10.9646 109.4148,37.4612 148.4833,28.8018 l -4.8199,40.3038 -92.127,-22.2543 -51.5364,-5.8565 -37.481,22.2544 c 43.7036,-5.494 83.3708,-6.3751 105.4153,12.8841 l 64.4205,17.5692 c 16.5518,7.3874 8.7473,27.8366 7.1037,38.8631 z"
         style="fill:#000000;stroke:#000000;stroke-width:1px;stroke-linecap:butt;stroke-linejoin:miter;stroke-opacity:1" />
      <path
         style="fill:#000000;stroke:#000000;stroke-width:1px;stroke-linecap:butt;stroke-linejoin:miter;stroke-opacity:1"
         d="m 1629.1694,1771.5309 -99.9932,50.5802 9.9343,-46.5143 71.4252,-26.7449 z"
         id="path3815"
         inkscape:connector-curvature="0" />
    </g>
    <path
       style="fill:#000000;stroke:none;display:inline"
       d="m 3082.052,1673.4418 c 15.648,-21.1764 30.8922,-40.6545 46.1446,-58.9615 -6.558,-24.6085 -0.4369,-73.1105 2.5086,-76.6782 2.3977,-2.9042 -0.8004,33.7762 13.7173,57.6455 7.3635,-8.438 14.7626,-16.6482 22.2432,-24.6895 -6.5541,-12.4502 0.079,-72.8891 0.079,-72.8891 0,0 3.7426,50.5276 13.3305,58.7431 6.5388,-6.7696 13.1582,-13.4396 19.8874,-20.0476 -6.5816,-23.8947 7.7875,-72.6224 11.1497,-73.7964 3.5503,-1.2397 -3.4719,46.0658 5.6913,57.5986 42.6761,-40.2224 90.4311,-79.2602 150.101,-125.864 -42.3121,45.9224 -85.0809,91.8449 -127.3494,137.7674 14.1134,4.2822 53.3055,-6.4181 51.846,-3.319 -1.0846,2.3031 -34.1076,19.0674 -66.2677,19.0101 -6.9127,7.5328 -13.8089,15.0656 -20.6846,22.5984 13.1119,6.3065 67.2989,-13.566 64.7242,-10.1132 -2.3655,3.1724 -59.9428,29.9521 -82.3522,29.4786 -7.6217,8.397 -15.2132,16.7941 -22.7688,25.1911 26.2547,3.7092 64.8054,-6.6303 62.6196,-3.52 -2.0665,2.9406 -43.1082,19.368 -78.8299,21.5998 -15.212,17.0293 -30.2588,34.0587 -45.0916,51.088 z"
       id="path4237"
       inkscape:connector-curvature="0"
       sodipodi:nodetypes="cccccccccccccccccccccc" />
  </g>
  <g
     inkscape:groupmode="layer"
     id="layer2"
     inkscape:label="Huevo Contorno"
     style="display:inline"
     transform="translate(-924.52598,-608.77412)"
     sodipodi:insensitive="true">
    <path
       style="fill:#000000;stroke:none"
       d="m 1680.4601,1936.3804 -61.2883,-47.2085 c -70.2953,-528.029 28.3377,-739.7314 264.2024,-1087.45405 188.0972,-227.06586 385.0343,-286.3988 609.5705,1.65645 97.6635,123.67432 183.3637,277.1993 220.3068,467.1165 63.9906,302.1081 58.6142,514.5659 -5.8351,717.4097 l -34.5528,16.3979 c 65.1036,-242.4552 63.4915,-484.9104 9.3702,-727.3656 C 2644.9186,1078.8341 2559.2272,941.75519 2471.4032,827.16085 2321.2195,592.42949 2093.3933,573.15319 1915.0447,824.81829 1779.3263,992.37366 1522.2602,1385.0651 1680.4601,1936.3804 z"
       id="path3034"
       inkscape:connector-curvature="0"
       sodipodi:nodetypes="ccccccccccc" />
  </g>
  <g
     inkscape:groupmode="layer"
     id="layer3"
     inkscape:label="Objeto completo"
     transform="translate(-924.52598,-608.77412)"
     sodipodi:insensitive="true">
    <path
       style="opacity:0.18942733;fill:#ffffff;fill-opacity:1;stroke:none"
       d="m 2733.6436,1375.4799 50.0542,-25.0271 -32.9903,-77.7358 13.6512,-29.5775 21.9935,15.9264 c 6.4248,22.2967 15.8731,43.0549 35.1084,64.6399 l 33.1474,-22.1696 24.2687,25.0271 c -39.9627,18.1481 -74.005,45.6702 -105.4173,77.3565 l 48.5375,3.792 c 69.2793,20.9009 135.9071,34.5465 194.3718,67.7655 l -2.1372,67.3133 c -12.7983,35.6249 -29.794,40.0795 -71.6494,29.6695 l -92.7926,-18.8219 c 34.1791,63.9704 68.4034,127.952 119.3365,196.1108 l 51.2109,1.6929 c 14.9575,-18.4918 30.1828,-37.4445 37.4268,-53.8327 -38.8499,-87.7022 -37.7496,-162.8018 -3.6972,-226.192 32.702,-59.0629 143.7792,-121.0212 240.9483,-165.4608 117.8784,-53.3099 235.7569,-97.8826 353.6353,-186.4356 -86.6201,82.6848 -121.8388,202.7525 -166.0891,316.2517 -39.3639,97.779 -96.7893,183.9184 -200.2169,240.412 -56.5243,24.3872 -119.9302,40.8342 -189.5994,50.0542 l -15.9263,20.4767 75.0813,-16.6847 c 8.4936,7.6478 20.1324,11.3641 25.0272,23.5103 l 12.5135,54.6046 -101.6252,37.1615 c 6.2873,11.6614 11.1555,24.742 14.4095,39.4367 l -28.4399,20.4767 c 4.0929,54.8219 -4.9281,109.9418 40.9535,163.8139 8.0719,31.0925 -6.7486,59.8958 -28.8191,87.9741 -36.7273,10.8957 -78.6548,17.0791 -135.7532,-5.1192 l -26.5439,18.7703 c 27.0764,5.0936 83.9624,10.0028 89.8701,44.3663 -6.5301,16.9796 -16.4215,34.4763 -36.0239,53.467 l -74.3229,2.6544 48.1582,138.4075 -67.8765,10.6176 -72.8062,-152.0587 -17.8223,-3.0336 -41.3327,32.9903 c -4.6481,26.7395 -20.1335,44.9233 -43.9871,56.5006 l -0.7583,17.4431 -10.2384,9.8592 52.7086,-15.5471 43.2287,-7.584 26.9231,5.3088 8.7215,16.6847 -30.7151,79.6317 c -13.2236,14.4929 -32.03,22.2864 -55.363,24.648 -63.1499,9.8398 -117.5433,45.564 -189.9785,59.9133 -29.7148,31.176 -93.3595,56.5167 -125.1356,-3.7919 l -137.6491,11.7551 23.5103,61.8094 c 32.3583,5.0986 64.7166,16.7016 97.0749,36.4031 5.6075,18.1926 2.3646,26.8541 -10.6176,25.0271 l -78.8733,-22.3727 11.7551,39.4366 c 0.059,27.1697 -20.5285,5.1076 -38.2991,-10.2383 l -46.6414,-127.79 -105.038,2.2752 -10.2384,17.4431 c -32.8281,18.5023 -58.0939,58.6113 -86.4573,89.8701 l -29.9567,4.9296 -47.779,-16.6847 -16.9989,-38.4102 25.6284,-26.0996 21.3271,-48.4914 c -50.1598,1.6531 -98.2674,-8.1866 -144.8539,-26.5439 -25.8566,-2.5358 -51.4552,-6.8776 -76.5981,-14.4096 -94.5395,9.5329 -147.4644,-25.1819 -140.6827,-90.2493 l -97.0749,-40.5743 c -5.5186,54.8464 -13.0705,102.2375 -21.6143,145.9916 -19.5713,65.6002 -111.7325,38.9917 -204.3881,11.7551 l -20.0976,-50.4334 c 46.5342,-30.7483 62.5072,-109.2485 87.9741,-172.9146 -50.9161,-3.3312 -98.6956,0.091 -141.0619,15.1679 -53.327,11.5462 -75.7223,-3.0062 -83.4237,-29.9567 l -24.2687,-58.7758 c 65.9192,-22.2776 129.5557,-44.9357 211.9721,-64.4638 l -8.7216,-40.9534 c -54.3174,-27.8776 -73.9085,-58.0703 -109.2092,-87.2157 l -115.6557,103.142 c -52.9476,-17.2675 -92.5342,-39.3068 -125.51473,-63.7054 19.75313,-32.8932 10.22201,-61.9799 59.65313,-118.0879 l 61.2002,-73.9627 c -44.6542,-10.5101 -97.1965,-6.9338 -150.43083,7.7601 l -30.29639,-26.5605 c 21.57647,-21.9448 37.98594,-45.4622 43.16957,-72.3962 l -24.13206,-9.6528 c 20.99052,-42.0552 52.04773,-71.9712 97.33261,-84.7303 l 134.6033,61.4027 c 21.2319,9.4437 41.744,20.5805 72.6643,7.2396 -26.7466,-45.7389 -54.4771,-87.1488 -84.782,-117.2313 l -2.2752,-33.7487 40.9534,14.4095 31.4735,30.7151 c 11.8375,-14.1038 15.0953,-42.5072 18.5808,-70.5309 l 32.2319,41.7118 -18.96,53.8463 35.6447,50.4334 c 48.1841,-25.4312 98.447,-49.4766 150.9211,-72.0478 -72.8921,-11.5849 -110.0179,5.3946 -122.4812,-60.2926 15.2381,-19.5595 21.041,-38.7936 15.5472,-57.6382 34.9455,-7.0626 71.2227,-12.9045 96.6496,-25.4063 -11.7523,-29.9639 -23.3743,-58.2424 -43.5618,-67.1182 11.151,-12.3696 21.9963,-29.784 34.5071,-19.7183 19.6465,28.1392 26.5998,58.0273 82.6653,81.1485 l 88.3533,-55.7422 -86.8365,-34.1279 c -14.7234,-21.3154 -46.3055,-9.2071 -72.2049,-6.4923 -58.1423,-2.542 -59.4933,-15.6553 -26.0076,-44.3203 l 54.6046,-45.883 c 49.8913,13.9029 102.599,34.3776 144.4747,29.5775 36.3996,-164.0726 90.3128,-270.3506 146.6599,-368.5964 64.9689,-120.72651 136.3322,-215.87561 213.4347,-288.06792 167.6551,-140.65707 299.8538,-107.67471 430.0869,7.0635 91.2306,100.19733 176.1855,196.08583 235.9579,344.28402 48.2413,107.4201 67.3038,186.0327 89.8425,322.3807 z"
       id="path3813"
       inkscape:connector-curvature="0"
       sodipodi:nodetypes="cccccccccccccccccccccccccccccccccccccccccccccccccccccccccccccccccccccccccccccccccccccccccccccccccccccccccccccccccccccccc" />
  </g>
</svg>
