<?xml version="1.0" encoding="UTF-8" standalone="no"?>
<!-- Created with Inkscape (http://www.inkscape.org/) -->

<svg
  xmlns:dc="http://purl.org/dc/elements/1.1/"
  xmlns:cc="http://creativecommons.org/ns#"
  xmlns:rdf="http://www.w3.org/1999/02/22-rdf-syntax-ns#"
  xmlns:svg="http://www.w3.org/2000/svg"
  xmlns="http://www.w3.org/2000/svg"
  xmlns:sodipodi="http://sodipodi.sourceforge.net/DTD/sodipodi-0.dtd"
  xmlns:inkscape="http://www.inkscape.org/namespaces/inkscape"
  version="1.1"
  id="svg10"
  width="28.370781"
  height="126.46767"
  viewBox="0 0 28.370781 126.46767"
  sodipodi:docname="Corbata.svg"
  inkscape:version="0.48.5 r10040">
  <metadata id="metadata16">
    <rdf:RDF>
      <cc:Work rdf:about="">
        <dc:format>image/svg+xml</dc:format>
        <dc:type rdf:resource="http://purl.org/dc/dcmitype/StillImage"/>
        <dc:title/>
      </cc:Work>
    </rdf:RDF>
  </metadata>
  <defs id="defs14"/>
  <sodipodi:namedview
    pagecolor="#ffffff"
    bordercolor="#666666"
    borderopacity="1"
    objecttolerance="10"
    gridtolerance="10"
    guidetolerance="10"
    inkscape:pageopacity="0"
    inkscape:pageshadow="2"
    inkscape:window-width="1280"
    inkscape:window-height="706"
    id="namedview12"
    showgrid="false"
    showguides="true"
    inkscape:guide-bbox="true"
    inkscape:zoom="3.8666008"
    inkscape:cx="14.185369"
    inkscape:cy="63.233819"
    inkscape:window-x="-8"
    inkscape:window-y="-8"
    inkscape:window-maximized="1"
    inkscape:current-layer="layer2"
    fit-margin-top="0"
    fit-margin-left="0"
    fit-margin-right="0"
    fit-margin-bottom="0"/>
  <g id="root" style="display:inline">
    <g inkscape:groupmode="layer" id="layer2" inkscape:label="Corbata" style="display:inline" transform="translate(-1741.0266,-133.77395)">
      <g transform="matrix(1.4442236,0,0,1.4442236,1606.3463,80.970996)" id="g4672" style="fill:#faf5f1;fill-opacity:1;display:inline">
        <path
          sodipodi:nodetypes="cccccccccc"
          inkscape:connector-curvature="0"
          id="path3702"
          d="m 98.733517,36.999537 c -1.84992,0.47646 -3.06338,2.119778 -4.14268,4.009043 1.07895,4.754827 2.83026,7.71671 4.67722,10.423512 -4.12318,21.501093 -5.77625,42.343485 -6.01357,62.808348 3.03913,4.0205 6.33537,7.42394 10.022613,9.88897 3.82506,-2.68817 7.21871,-5.92542 9.6217,-10.42351 -0.34463,-20.799353 -1.07532,-41.620155 -6.01356,-62.674713 2.60242,-3.11344 3.45815,-6.663554 4.00904,-10.289876 -0.98968,-1.807611 -2.65231,-2.83012 -4.40995,-3.741774 -2.72518,-0.637083 -5.28466,-0.528553 -7.750813,0 z"
          style="opacity:0.5;fill:#faf5f1;fill-opacity:1;stroke:none"/>
        <g id="g4569" transform="matrix(-0.88221241,0,0,0.88221241,161.73034,-125.33226)" style="fill:#faf5f1;fill-opacity:1"/>
        <g transform="matrix(0.88221241,0,0,0.88221241,45.026848,-125.33226)" id="g4645" style="fill:#faf5f1;fill-opacity:1"/>
      </g>
    </g>
  </g>
</svg>
