<?xml version="1.0" encoding="UTF-8" standalone="no"?>
<!-- Created with Inkscape (http://www.inkscape.org/) -->

<svg
   xmlns:dc="http://purl.org/dc/elements/1.1/"
   xmlns:cc="http://creativecommons.org/ns#"
   xmlns:rdf="http://www.w3.org/1999/02/22-rdf-syntax-ns#"
   xmlns:svg="http://www.w3.org/2000/svg"
   xmlns="http://www.w3.org/2000/svg"
   xmlns:sodipodi="http://sodipodi.sourceforge.net/DTD/sodipodi-0.dtd"
   xmlns:inkscape="http://www.inkscape.org/namespaces/inkscape"
   id="svg2"
   version="1.1"
   inkscape:version="0.92.3 (2405546, 2018-03-11)"
   width="3730.6196"
   height="877.93872"
   sodipodi:docname="diseño.svg.svg"
   inkscape:export-filename="C:\Users\David\Dropbox\Third Eye Team\Archivo\Scans\trello.png"
   inkscape:export-xdpi="157.38342"
   inkscape:export-ydpi="157.38342">
  <metadata
     id="metadata8">
    <rdf:RDF>
      <cc:Work
         rdf:about="">
        <dc:format>image/svg+xml</dc:format>
        <dc:type
           rdf:resource="http://purl.org/dc/dcmitype/StillImage" />
        <dc:title></dc:title>
      </cc:Work>
    </rdf:RDF>
  </metadata>
  <defs
     id="defs6" />
  <sodipodi:namedview
     pagecolor="#ffffff"
     bordercolor="#666666"
     borderopacity="1"
     objecttolerance="10"
     gridtolerance="10"
     guidetolerance="10"
     inkscape:pageopacity="0"
     inkscape:pageshadow="2"
     inkscape:window-width="1280"
     inkscape:window-height="658"
     id="namedview4"
     showgrid="false"
     inkscape:zoom="0.12852589"
     inkscape:cx="1861.8739"
     inkscape:cy="365.80887"
     inkscape:window-x="-8"
     inkscape:window-y="-8"
     inkscape:window-maximized="1"
     inkscape:current-layer="layer6"
     showguides="true"
     inkscape:guide-bbox="true"
     fit-margin-top="0"
     fit-margin-left="0"
     fit-margin-right="0"
     fit-margin-bottom="0" />
  <g
     inkscape:groupmode="layer"
     id="layer6"
     inkscape:label=":"
     transform="translate(-125.85612,-2298.6677)">
    <g
       id="g3796"
       transform="matrix(4.2089021,0,0,4.2089021,-16109.246,-1703.6477)"
       style="fill:#ffffff">
      <path
         inkscape:connector-curvature="0"
         id="path3792"
         d="m 4721.9632,1072.2699 -6.6258,-26.503 v -6.0737 l 7.1779,8.8344 5.5215,-1.1043 v 8.2822 l 8.8344,8.2822 -0.5522,12.6994 -6.6257,2.2086 -6.0737,7.7301 z"
         style="fill:#ffffff;stroke:none" />
      <path
         sodipodi:nodetypes="cccccc"
         inkscape:connector-curvature="0"
         id="path3794"
         d="m 4725.5339,1122.4024 -3.1234,7.4181 c 5.2427,4.472 9.3923,13.3166 13.0793,24.0113 4.1508,-2.0164 7.6564,-4.8622 8.199,-11.5176 -4.9696,-7.8856 -6.3118,-11.6396 -9.7607,-14.0554 -3.0821,1.1719 -5.8318,-1.3125 -8.3942,-5.8564 z"
         style="fill:#ffffff;stroke:none" />
    </g>
  </g>
  <g
     inkscape:groupmode="layer"
     id="layer5"
     inkscape:label="o"
     transform="translate(-125.85612,-2298.6677)">
    <path
       style="fill:#ffffff;stroke:none"
       d="m 3405.5734,2810.8726 c -16.6186,0.4268 -33.3648,3.3233 -49.7534,7.886 -154.657,70.8698 -100.8403,199.9709 -3.5848,255.3642 -9.7824,18.9316 -17.7521,33.3606 -41.9821,57.0658 30.3006,-20.5598 38.901,-25.1905 59.7615,-45.4518 143.6208,65.0535 323.0382,-0.9664 231.9932,-88.7538 6.6075,-21.6367 -28.6675,-54.8514 -50.0407,-60.7941 l -1.0037,-21.5074 c 45.9486,-14.5666 60.7024,-15.7238 99.5071,-34.125 l -113.8452,17.9228 c -32.7925,-67.6427 -81.1947,-88.8918 -131.0519,-87.6067 z m -25.5216,128.6142 c 7.3949,-0.099 15.0678,4.5714 21.3637,16.3453 -20.4558,16.681 -0.2752,72.8593 -18.7832,66.243 -52.2216,-20.5626 -28.9927,-82.2271 -2.5805,-82.5883 z m 88.6098,50.3269 c 78.0853,55.0472 22.7014,100.7543 -59.6472,43.0149 8.7453,-55.0207 48.3464,-18.6865 59.6472,-43.0149 z"
       id="path3783"
       inkscape:connector-curvature="0"
       sodipodi:nodetypes="cccccccccccsccsccc" />
  </g>
  <g
     inkscape:groupmode="layer"
     id="layer4"
     inkscape:label="ñ"
     style="display:inline"
     transform="translate(-125.85612,-2298.6677)">
    <g
       id="g3778"
       transform="matrix(4.0729929,0,0,4.0729929,-14333.254,-176.76297)"
       style="fill:#ffffff">
      <path
         sodipodi:nodetypes="cccccccccc"
         inkscape:connector-curvature="0"
         id="path3774"
         d="m 4187.4847,736.01226 c -24.019,-17.25038 -29.3237,-4.70769 -25.3988,19.04908 3.5435,9.48862 9.0359,18.54417 25.6748,25.1227 19.7911,27.03891 50.5471,22.29658 83.6504,-6.62577 3.4664,-2.87666 16.5593,49.49608 48.9696,49.75998 -7.7826,-3.28223 -11.9096,-28.23752 -16.1169,-43.96243 -11.4071,-31.57703 -38.1383,-36.38377 -51.9018,-19.32515 -10.0953,10.41004 -46.4873,33.20059 -53.0062,-5.2454 l 5.5215,-4.96933 c -6.0891,-6.05902 -12.0333,-11.39379 -17.3926,-13.80368 z"
         style="fill:#ffffff;stroke:none" />
      <path
         sodipodi:nodetypes="cccccc"
         inkscape:connector-curvature="0"
         id="path3776"
         d="m 4161.562,690.9833 c 2.1923,10.3398 18.4826,12.13344 31.969,23.42282 l 0.6331,-4.74787 3.1652,3.16524 c 38.563,-22.70906 81.0571,-12.22206 122.1785,-13.29403 -91.5045,-35.67643 -123.9996,-6.49885 -157.9458,-8.54616 z"
         style="fill:#ffffff;stroke:none" />
    </g>
  </g>
  <g
     inkscape:groupmode="layer"
     id="layer3"
     inkscape:label="e"
     style="display:inline"
     transform="translate(-125.85612,-2298.6677)">
    <path
       style="fill:#ffffff;stroke:none"
       d="m 2333.187,2775.5843 c -80.6832,-1.2124 -148.1331,78.038 -109.2099,176.7428 -17.4984,16.5347 -42.0897,24.1968 -73.921,22.8154 -65.2143,17.2633 -169.3286,97.615 -198.798,45.7825 l -51.1063,9.4309 c -26.35,28.0359 5.1577,59.3714 40.3069,41.5236 l 96.7368,72.7049 c 90.6734,-27.7625 173.567,-65.8076 238.0403,-103.2772 52.0204,106.6074 333.0905,136.2447 420.4105,-47.304 l 48.3687,-6.6926 c 64.2041,-37.4337 -8.8513,-165.8813 -95.8244,-124.8756 -34.3198,39.823 -35.655,69.2836 -7.6055,119.5517 -23.388,101.234 -287.7655,103.6896 -313.1788,9.2786 140.3784,-39.5094 121.0316,-120.9229 138.414,-104.7985 l 26.9218,-16.1224 c -33.3887,-4.9721 6.5361,-46.3157 -77.8766,-64.4914 -26.4083,-20.5532 -54.7844,-29.8647 -81.6785,-30.2687 z m 0,83.2003 c 12.2766,0.04 27.4549,8.0693 43.9573,29.0512 -19.1898,18.1283 -41.7968,26.0009 -64.4916,33.6148 -19.261,-24.1882 -6.4748,-62.757 20.5343,-62.666 z"
       id="path3762"
       inkscape:connector-curvature="0" />
  </g>
  <g
     inkscape:groupmode="layer"
     id="layer2"
     inkscape:label="is"
     style="display:inline"
     transform="translate(-125.85612,-2298.6677)">
    <g
       id="g3757"
       transform="matrix(4.2787353,0,0,4.2787353,-15130.253,953.24393)"
       style="fill:#ffffff">
      <path
         sodipodi:nodetypes="ccccccccc"
         inkscape:connector-curvature="0"
         id="path2985"
         d="m 3864.8607,430.53258 c -2.8749,-3.62191 2.024,-10.47743 7.0396,-8.3715 6.5957,2.66174 13.1915,5.59663 19.7872,7.80072 l 9.3228,14.65015 c -0.6204,9.84104 -0.7686,20.15706 -0.3805,31.01266 -0.3715,9.38626 -8.0262,17.10866 -6.0884,36.14972 -18.0104,-11.00356 -25.952,-41.94969 -23.5924,-57.83955 6.8365,-29.34708 -30.6154,8.14071 -64.1183,17.12354 20.6737,-9.62313 41.6348,-22.11019 58.03,-40.52574 z"
         style="fill:#ffffff;stroke:none" />
      <path
         sodipodi:nodetypes="cccccccccccccc"
         inkscape:connector-curvature="0"
         id="path3755"
         d="m 3893.3877,450.59393 c 0.1499,-14.47641 -0.653,-26.15561 -0.863,-36.56703 37.1981,26.47399 102.5924,47.18588 70.5794,49.88047 -14.0646,2.98738 -24.8807,7.5079 -27.9626,20.18847 -9.9533,10.69094 -6.9933,19.79207 16.8732,17.22721 5.5125,1.67229 21.4372,2.99308 24.6643,1.7795 -7.7415,0.94441 -18.7791,-3.01659 -13.7211,-4.57549 36.6836,4.51216 43.1715,-21.88062 34.6059,-40.74914 1.1189,-1.27401 0.9009,-2.79606 -0.2801,-4.49662 -16.081,-13.6656 -113.6468,-55.82482 -98.9638,-76.47014 -10.2116,-2.67804 -22.2062,-2.16284 -26.5927,-15.2748 -9.7176,23.2923 7.5207,30.57753 16.8532,50.92167 1.2399,11.04347 1.7565,23.69804 1.9942,36.97388 z"
         style="fill:#ffffff;stroke:none" />
    </g>
  </g>
  <g
     inkscape:groupmode="layer"
     id="layer1"
     inkscape:label="D"
     style="display:inline"
     transform="translate(-125.85612,-2298.6677)">
    <path
       style="fill:#ffffff;stroke:none"
       d="m 476.80063,2365.0047 c 50.21913,115.0922 115.22084,253.0299 209.71075,436.5406 -0.43453,29.5642 -6.31327,60.8949 23.1262,104.9918 -36.37557,-18.1509 -16.9737,47.8223 -6.00695,104.7193 -182.92946,-190.6334 -285.09669,-348.4582 -522.13696,-556.3757 2.78255,-9.432 -4.92228,-30.6152 -28.83292,-38.4607 -2.67345,-4.3854 5.41789,-13.0148 3.15405,-17.1767 20.13572,-16.2113 -15.52752,-13.7524 -29.95868,-12.8394 l 21.58739,-20.8298 -16.2376,-24.1084 c 25.09307,7.4975 32.2839,-1.117 28.88869,-19.2591 l -21.93405,-5.8846 5.88476,-12.8395 57.24247,14.9793 -5.88471,-17.1192 14.97934,-2.6749 c 5.97115,8.7498 1.30182,25.8353 18.72419,25.6789 6.02639,2.0757 7.28564,-11.012 8.02458,-18.1892 393.7821,-12.8119 814.23552,-10.9846 923.89742,74.5074 -38.3139,-17.2646 -67.7334,-23.63 -107.4329,-25.7235 103.3726,45.424 211.6127,85.7151 272.3655,157.3668 -48.3408,-38.5231 -82.7102,-50.8009 -126.3475,-69.6045 84.6744,54.8848 135.8004,91.2087 133.913,177.7945 4.8044,-5.775 21.2335,-6.4897 21.887,12.6023 22.5704,187.3115 -201.5315,343.9762 -365.37003,411.8337 13.37943,7.1876 44.64643,-1.3599 68.09113,-3.0261 -11.2123,4.6561 -22.2125,9.3544 -33.3609,14.0229 -3.3758,5.207 -2.4401,16.5921 -4.2511,18.7522 10.1744,4.0585 33.6271,3.2227 64.7101,-9.4517 -32.6348,36.1555 -140.69325,64.694 -201.11099,76.4281 69.72516,-25.5144 150.81999,-63.4396 125.91619,-79.6288 -19.96103,10.5438 -47.75903,20.7666 -86.57282,29.811 -30.67922,-23.5369 -67.71535,30.0973 -130.13023,49.9333 h -51.44684 c -2.35431,-16.8712 -31.75163,-29.6863 -62.03875,-42.3676 -18.64809,-56.9511 -2.95297,-141.4124 27.23656,-125.5912 8.81264,-62.7859 90.29049,-55.921 55.98617,-10.5919 h 46.90757 c 11.83341,-11.533 17.92751,-21.6305 24.21031,-31.7758 3.78253,5.5485 3.63376,13.3428 16.64449,13.618 165.70044,-100.7105 256.95894,-108.8612 379.79854,-234.5368 -17.1653,-46.9389 -8.0153,-52.1496 21.184,-86.2493 61.5331,-207.7567 -619.37181,-279.3331 -891.2406,-178.5506 16.28951,43.8813 69.15198,108.9463 127.10396,127.104 -12.4275,-46.7004 -56.09574,-127.002 -98.35426,-205.7874 z"
       id="path2988"
       inkscape:connector-curvature="0"
       sodipodi:nodetypes="cccccccccccccccccccccccccccccccccccccccccccccc" />
  </g>
</svg>
