<?xml version="1.0" encoding="UTF-8" standalone="no"?>
<!-- Created with Inkscape (http://www.inkscape.org/) -->

<svg
   xmlns:dc="http://purl.org/dc/elements/1.1/"
   xmlns:cc="http://creativecommons.org/ns#"
   xmlns:rdf="http://www.w3.org/1999/02/22-rdf-syntax-ns#"
   xmlns:svg="http://www.w3.org/2000/svg"
   xmlns="http://www.w3.org/2000/svg"
   xmlns:sodipodi="http://sodipodi.sourceforge.net/DTD/sodipodi-0.dtd"
   xmlns:inkscape="http://www.inkscape.org/namespaces/inkscape"
   id="svg2"
   version="1.1"
   inkscape:version="0.92.3 (2405546, 2018-03-11)"
   width="6779.5454"
   height="1119.0912"
   sodipodi:docname="dr.svg.svg"
   inkscape:export-filename="C:\Users\David\Dropbox\Third Eye Team\Archivo\Scans\trello.png"
   inkscape:export-xdpi="157.38342"
   inkscape:export-ydpi="157.38342">
  <metadata
     id="metadata8">
    <rdf:RDF>
      <cc:Work
         rdf:about="">
        <dc:format>image/svg+xml</dc:format>
        <dc:type
           rdf:resource="http://purl.org/dc/dcmitype/StillImage" />
        <dc:title></dc:title>
      </cc:Work>
    </rdf:RDF>
  </metadata>
  <defs
     id="defs6" />
  <sodipodi:namedview
     pagecolor="#ffffff"
     bordercolor="#666666"
     borderopacity="1"
     objecttolerance="10"
     gridtolerance="10"
     guidetolerance="10"
     inkscape:pageopacity="0"
     inkscape:pageshadow="2"
     inkscape:window-width="1280"
     inkscape:window-height="658"
     id="namedview4"
     showgrid="false"
     inkscape:zoom="0.11425457"
     inkscape:cx="3425.0047"
     inkscape:cy="464.0474"
     inkscape:window-x="-8"
     inkscape:window-y="-8"
     inkscape:window-maximized="1"
     inkscape:current-layer="layer9"
     showguides="true"
     inkscape:guide-bbox="true"
     fit-margin-top="0"
     fit-margin-left="0"
     fit-margin-right="0"
     fit-margin-bottom="0" />
  <g
     inkscape:groupmode="layer"
     id="layer9"
     inkscape:label="s"
     style="display:inline;opacity:1"
     transform="translate(-91.068888,-386.42873)"
     sodipodi:insensitive="true">
    <path
       style="fill:#ffffff;stroke:none"
       d="m 6725.8678,880.21423 c 6.8935,-10.86145 12.6366,-16.50981 27.6625,-25.73283 -53.318,-92.5296 -117.9602,-142.28438 -215.5115,-118.37036 -62.3905,32.21165 -106.784,102.49063 -102.7428,167.94776 0.9498,10.33631 -3.2955,7.05695 -7.1434,-2.06415 -5.1179,35.02732 22.7172,54.14594 29.4718,68.28435 -11.5181,3.45427 -18.4246,-7.82656 -28.5271,-12.61341 8.463,23.70116 36.0667,50.65661 51.0429,73.72881 -12.8632,-0.4847 -16.2505,-3.6587 -25.388,-9.2409 51.9763,72.9167 86.3835,115.3153 154.4985,188.2245 19.6044,3.129 31.9443,8.7612 20.7146,21.8205 27.9703,21.0751 47.8761,48.5674 78.5531,77.7526 -51.1803,47.1258 -127.33,33.6122 -201.7742,24.2407 15.0736,10.1734 29.028,17.891 47.3088,32.7528 -21.3408,4.9168 -31.3582,-4.3207 -39.1207,-16.3763 -60.5693,19.393 -127.6969,22.3893 -194.9782,25.0012 l -72.052,24.4463 c 86.4115,61.5178 139.5552,55.7292 209.7223,46.3183 -46.7703,-14.448 -47.4018,-14.0732 -88.778,-42.4588 43.2874,16.2048 71.1289,24.0499 150.5365,14.1533 4.2113,12.3034 17.2998,25.8758 33.4522,39.8857 39.0809,11.6495 64.3011,4.8189 93.9247,3.8599 l 21.8729,24.4462 c 40.7436,11.1278 81.4868,16.7316 122.2303,19.2995 31.4442,-8.7569 57.3318,-27.701 78.485,-55.3258 l 1.2865,-34.7389 -25.7328,-14.153 10.2934,-24.4461 c -19.5784,2.6088 -24.4692,-19.262 -34.7396,-32.1661 l 9.0066,-10.2927 c 14.4181,-17.9805 -18.313,-52.0059 -39.8855,-68.192 18.7558,20.8791 26.9439,38.7947 27.0193,59.1852 -94.8176,-69.9372 -169.5471,-146.2494 -218.7285,-214.8683 -115.7149,-85.7365 -174.1296,-321.56487 12.8662,-292.06648 l 59.1854,-2.57332 c 26.6227,15.07073 41.1586,39.81122 55.9688,64.33183 z"
       id="path3770"
       inkscape:connector-curvature="0"
       sodipodi:nodetypes="cccccccccccccccccccccccccccccccccccc" />
  </g>
  <g
     inkscape:groupmode="layer"
     id="layer7"
     inkscape:label="ale"
     style="display:inline"
     transform="translate(-91.068888,-386.42873)"
     sodipodi:insensitive="true">
    <path
       style="fill:#ffffff;stroke:none"
       d="m 5528.8373,1052.4039 c -28.0289,-167.46571 0.7544,-306.57666 18.2691,-451.27049 6.0526,-96.82864 -3.9979,-177.52041 -71.0475,-214.70468 l -43.5655,38.25647 c 25.5072,199.38587 -21.6753,547.52898 -99.1547,771.0632 -32.3211,68.0241 -119.4102,45.3166 -150.6834,-19.3624 21.9721,-45.1781 45.0473,-118.9934 47.6251,-187.84682 l -16.7081,-16.70829 c -3.9664,-97.95804 -81.9035,-163.94034 -173.6377,-177.54101 -22.8381,14.7929 -48.3296,26.7057 -78.5427,33.41587 -13.3658,21.2892 -34.1627,41.31625 -68.0809,59.18017 33.8971,28.72091 101.3385,26.91558 172.3885,21.86083 23.6942,3.11401 47.6907,5.08872 68.0809,18.11328 11.6461,70.67521 11.1814,136.00457 -49.4994,158.80367 -60.293,-41.2752 -106.0854,-76.1227 -163.3313,-61.679 -15.1263,9.384 -33.9706,22.5289 -61.2103,24.9838 l -2.4983,25.7649 c -61.0396,62.5959 -78.7356,126.8174 25.7641,214.8608 35.6949,23.7251 147.4036,8.6724 222.5121,-35.9143 138.3767,156.0374 311.5626,123.7785 330.0994,-174.7308 105.7095,384.9537 345.65,455.4816 476.5662,224.8544 45.9917,-69.4635 52.2242,-167.3261 65.9534,-259.8344 23.5272,-49.14304 2.3704,-78.55796 -27.6457,-73.24238 -31.6544,-12.61795 -59.7401,-16.64039 -92.1347,-16.93814 -77.1637,36.32638 -128.4414,248.00662 -31.106,352.92252 16.263,20.6582 35.7816,40.3635 45.0244,52.4285 82.3457,46.3776 173.1165,123.8196 371.7718,53.6189 113.9613,-40.7982 235.1238,-80.4549 336.9254,-226.4768 69.1458,-98.8486 91.5932,-150.4852 143.0113,-302.52227 -68.1035,152.16437 -106.8296,208.65837 -165.1795,274.44787 -75.675,133.9172 -417.5596,342.8565 -647.7176,146.9048 -2.3011,-16.9759 -33.5652,-60.1514 -40.2129,-86.554 -73.9641,-54.3318 15.3919,-219.37085 27.2024,-151.844 -12.1897,376.0396 -292.897,416.9937 -369.2379,-14.3102 z m -541.5245,60.1176 c 7.8178,-0.071 15.3898,3.3368 19.2065,12.4918 -8.7308,11.1662 -27.148,16.4603 -45.1274,4.3722 -1.0162,-7.2892 12.8912,-16.7447 25.9209,-16.864 z"
       id="path2995"
       inkscape:connector-curvature="0"
       sodipodi:nodetypes="cccccccccccccccccccccccccccccccccccccc" />
  </g>
  <g
     inkscape:groupmode="layer"
     id="layer6"
     inkscape:label="Ros"
     style="display:inline"
     transform="translate(-91.068888,-386.42873)"
     sodipodi:insensitive="true">
    <path
       style="fill:#ffffff;stroke:none"
       d="m 3446.9487,620.51617 c -167.6445,-0.0767 -332.5202,65.6537 -384.5437,159.14264 -4.0161,50.00609 -50.2104,91.95538 10.47,120.25398 l 27.8199,99.31459 c 31.2958,20.59492 30.1902,63.01982 20.9399,85.40392 29.194,88.3984 72.787,156.7798 64.4642,210.8934 36.2749,17.5759 72.3578,36.0939 106.3443,62.8192 l 0.2991,-45.1701 14.8073,-24.6792 c -11.2486,-46.9777 -11.1597,-89.3302 -11.0678,-131.7706 6.3165,-27.7507 -0.2023,-41.257 -12.4145,-48.1615 15.9713,-40.0153 3.2026,-38.8059 -12.863,-33.0552 2.0059,-38.9095 4.4986,-76.33259 18.0982,-108.28851 l -6.8807,-103.65166 -32.307,-40.98204 -42.1782,-3.88878 -8.8248,-30.51234 c 3.2531,-69.57168 193.3512,-103.68692 308.1136,-97.37005 183.53,20.96786 319.1128,125.39589 181.1292,176.19354 l -20.9398,6.28147 -2.5429,18.39727 c -31.5532,2.51763 -43.762,17.96904 -61.6227,29.61487 l -91.0883,9.87167 8.5257,19.74319 c -30.068,6.78021 -59.0696,-0.26803 -87.4985,-14.80765 l -8.5253,-33.35377 c 8.1146,71.70975 -171.8386,21.34904 -59.2296,179.93219 l 138.0531,115.9167 c 104.0001,53.5575 196.638,137.598 317.9848,173.8001 131.4238,45.3965 164.2137,5.4011 264.8883,-120.4038 131.2208,64.8236 317.5832,19.7001 246.6402,-90.6388 -2.3428,-33.6804 -20.688,-43.9287 -59.5283,-64.3155 l 0.1493,-18.3969 38.4392,-0.8974 c 24.0542,41.1874 74.4479,14.5975 130.7244,-27.072 44.7537,-31.2515 506.0167,43.6099 218.6707,111.5787 -67.374,20.734 -124.1693,48.4051 -177.6891,78.3744 -30.0345,15.0222 -51.7122,80.6443 30.3629,59.3796 l 45.3199,-30.5123 -7.7776,12.1155 c 6.6327,17.3529 22.7931,27.6427 75.8316,10.4693 24.732,-3.0952 56.1109,-13.6478 63.5674,2.6927 66.9312,-20.4716 135.648,-51.5468 211.7907,-127.2839 l -20.0428,-37.5423 3.4404,-15.5553 c -12.8956,-34.2039 -38.758,-49.4331 -58.3323,-68.0539 -87.8306,-68.91421 -431.5022,-121.08169 -488.0457,-45.3194 l -26.175,48.0115 -55.7892,5.2352 c -23.3286,-8.1145 -10.6658,-36.3619 -53.9949,-68.95199 -170.7795,-92.27756 -339.0935,111.51509 -139.399,259.80299 -53.0372,60.4137 -102.3062,153.8003 -193.394,73.1393 -163.8503,-95.1688 -326.0065,-180.7452 -390.5263,-277.1524 12.4231,-50.46462 195.8391,2.6472 345.207,-139.3992 l -8.8245,-81.96408 c -12.7821,-2.32468 -16.2788,-16.16744 -10.4702,-41.73023 C 3726.567,665.91642 3585.8556,620.57975 3446.9487,620.51617 Z m 648.834,478.02533 c 9.4073,-0.925 17.8975,5.2669 20.1916,21.8369 -12.1738,8.1226 -14.5741,19.7076 -8.675,34.4013 4.0266,18.1988 -1.8063,26.4986 -9.1236,33.3539 -55.9414,-38.681 -26.4367,-87.2305 -2.393,-89.5921 z m 94.8266,54.1438 c 10.9705,8.6492 23.7038,15.9891 23.6326,34.1019 24.4686,58.4361 -57.7981,38.5723 -86.3021,12.1154 4.4699,-34.9462 18.3145,-43.5208 34.85,-33.5037 l 13.0124,3.889 c -5.8106,-17.4627 6.7504,-14.5488 14.8071,-16.6026 z"
       id="path3772"
       inkscape:connector-curvature="0" />
  </g>
  <g
     inkscape:groupmode="layer"
     id="layer4"
     inkscape:label="id"
     style="display:inline"
     transform="translate(-91.068888,-386.42873)"
     sodipodi:insensitive="true">
    <path
       style="fill:#ffffff;stroke:none"
       d="m 2031.4861,849.96533 c -8.5884,34.00518 -9.7942,73.26821 -5.7793,118.07627 l 14.1664,18.58299 c 11.723,108.36291 62.2823,172.54191 118.5232,186.98011 42.3578,-18.9209 11.2678,-121.6642 13.4851,-188.78952 l 19.2645,-42.38138 -31.6207,-9.39857 c 6.3553,-88.7871 -10.6285,-165.06267 -37.7309,-218.88291 l 7.7057,-12.5219 c 137.7014,34.15125 253.0701,43.86115 418.9979,19.26442 -10.6254,32.2955 -22.8955,78.191 -18.6314,137.78766 -80.8136,-24.79411 -155.218,-23.95186 -226.9878,-12.57025 -153.5025,118.31306 -141.8199,370.88545 237.5019,397.78635 116.5901,11.1887 388.6098,-46.2092 425.1902,-110.6695 -12.2688,8.4083 -17.4477,11.4084 -32.1993,12.591 16.6814,-10.1511 30.2093,-22.2684 38.8234,-32.0104 -109.51,51.4239 -253.0084,34.8924 -407.2951,21.1138 -472.8757,-31.3215 -226.5634,-375.52379 19.0712,-32.6926 26.1761,58.4735 108.5147,72.5315 89.9042,-38.1411 -21.1622,-131.70292 -60.6058,-318.16747 24.5192,-429.08966 l 2.7246,-35.41685 c -25.9636,-11.36384 -45.1484,-26.0992 -64.2707,-40.86562 l -2.4765,-47.67674 -9.5353,2.72414 v 8.17342 l -11.5789,-14.98403 -5.4489,7.49202 12.9409,16.34635 -2.0432,25.8816 c -37.2312,-12.63537 -51.0824,13.69671 -70.1528,31.33038 13.1282,-5.30717 28.8036,-14.85919 34.7358,-8.17342 l 3.4057,6.1297 -25.2008,22.47654 6.2679,33.47377 c -2.5598,14.47483 -7.4362,21.99842 -12.5219,28.89636 -62.9177,64.16668 -231.3762,66.45218 -390.1014,21.19071 -3.6858,-4.34107 -3.6982,-12.3556 -3.8526,-20.22755 l -8.1872,-0.48356 -2.4084,14.92977 c -30.8157,-10.89067 -51.1139,-36.55762 -70.7961,-63.09054 -3.4742,-44.2549 -26.2029,-69.78715 -57.3112,-87.17066 l -32.749,11.55873 -2.8899,99.2105 c 94.8517,32.08037 135.3112,42.24522 153.7071,190.16615 -0.6073,20.78018 -15.6214,30.0544 2.2446,19.77461 0.6361,6.14399 1.242,12.50066 1.8187,19.07986 -7.8699,21.68757 -18.8725,20.62179 1.2228,14.82663 0.5082,6.54812 0.9913,13.30198 1.4515,20.26901 -1.2049,13.60443 -6.3142,15.64668 -16.3464,14.30311 -31.9106,-17.81032 -29.8421,-73.64369 -74.9205,-81.05035 z"
       id="path3758"
       inkscape:connector-curvature="0"
       sodipodi:nodetypes="ccccccccccccccccccccccccccccccccccccccccccccccccccc" />
  </g>
  <g
     inkscape:groupmode="layer"
     id="layer3"
     inkscape:label="v"
     style="display:inline"
     transform="translate(-91.068888,-386.42873)"
     sodipodi:insensitive="true">
    <path
       style="fill:#ffffff;stroke:none"
       d="m 1532.5733,854.12762 -92.498,-9.02472 58.6573,92.49852 c 95.3414,177.81738 93.0861,330.88418 306.8228,322.61468 l 47.3767,-60.9132 56.4013,-295.54214 -85.7296,9.02415 c -34.5932,69.51832 -69.1856,131.83049 -103.7788,171.45939 -51.5717,-105.33067 -122.8611,-178.71708 -187.2517,-230.11668 z"
       id="path2987"
       inkscape:connector-curvature="0"
       sodipodi:nodetypes="ccccccccc" />
  </g>
  <g
     inkscape:groupmode="layer"
     id="layer2"
     inkscape:label="a"
     style="display:inline"
     transform="translate(-91.068888,-386.42873)"
     sodipodi:insensitive="true">
    <path
       style="fill:#ffffff;stroke:none"
       d="m 1170.9807,899.4805 c -117.2519,-0.11624 -186.23783,38.84631 -227.03949,23.96258 -65.37809,17.43896 -74.10725,32.33081 -74.79195,46.957 -0.82953,50.69842 39.42645,169.77422 94.03482,88.83102 -20.20176,5.7186 -16.78523,-26.7203 36.4278,-37.3959 -1.59844,18.2915 -9.89873,27.6141 -28.92435,32.5549 -30.88512,25.386 -22.29306,90.2001 3.26743,134.2151 102.09444,14.0239 193.34554,4.4176 269.39804,-38.4854 30.3511,62.0483 67.3656,155.3055 222.4402,109.0417 162.9603,-48.8043 136.8833,-87.656 102.6278,-177.5409 50.9981,161.0205 -208.3947,126.7859 -218.2047,19.2425 -5.775,-48.3167 61.522,-19.2425 48.1672,-127.19519 l -24.5678,-11.73946 c -30.9859,-64.26892 -80.1012,-37.25423 -132.6415,-57.72786 -25.1554,-3.28835 -48.4798,-4.69841 -70.1935,-4.72009 z m 34.9759,152.2471 c -6.302,19.9788 -42.7654,29.2216 -66.005,14.3523 -3.7029,-45.7882 61.4885,-38.7292 66.005,-14.3523 z"
       id="path3759"
       inkscape:connector-curvature="0"
       sodipodi:nodetypes="scccccccccccccsccc" />
  </g>
  <g
     inkscape:groupmode="layer"
     id="layer1"
     inkscape:label="D"
     transform="translate(-91.068888,-2706.4287)"
     style="display:inline"
     sodipodi:insensitive="true">
    <path
       style="fill:#ffffff;stroke:none"
       d="m 243.74361,2954.7063 113.61799,79.8877 c 35.98929,90.6645 93.80887,195.8829 158.0002,305.349 l -55.03363,10.6519 c -93.13406,-118.9636 -244.28418,-178.2372 -369.259282,-406.54 57.629052,-17.7531 133.221172,-35.5056 234.337562,-53.2585 736.08735,-10.82 852.62725,677.2037 62.13472,694.3142 -153.83513,-4.869 -122.09095,-218.5075 14.20263,-218.5384 687.2586,-26.929 403.61483,-440.5032 -78.11253,-387.0119 l -74.56218,19.5281 -7.10112,49.7081 c 23.69414,39.2846 48.12533,59.1014 83.43848,72.7867 -2.97648,-24.5313 -7.35527,-50.2643 -26.62924,-88.7644 -28.78587,-30.5411 -49.97186,-42.0837 -74.56172,-62.1347 z"
       id="path2988"
       inkscape:connector-curvature="0"
       sodipodi:nodetypes="ccccccccccccccc" />
  </g>
</svg>
