<?xml version="1.0" encoding="UTF-8" standalone="no"?>
<!-- Created with Inkscape (http://www.inkscape.org/) -->

<svg
   xmlns:dc="http://purl.org/dc/elements/1.1/"
   xmlns:cc="http://creativecommons.org/ns#"
   xmlns:rdf="http://www.w3.org/1999/02/22-rdf-syntax-ns#"
   xmlns:svg="http://www.w3.org/2000/svg"
   xmlns="http://www.w3.org/2000/svg"
   xmlns:sodipodi="http://sodipodi.sourceforge.net/DTD/sodipodi-0.dtd"
   xmlns:inkscape="http://www.inkscape.org/namespaces/inkscape"
   id="svg2"
   version="1.1"
   inkscape:version="0.92.3 (2405546, 2018-03-11)"
   width="9583.2197"
   height="1286.6237"
   sodipodi:docname="jh.svg.svg">
  <metadata
     id="metadata8">
    <rdf:RDF>
      <cc:Work
         rdf:about="">
        <dc:format>image/svg+xml</dc:format>
        <dc:type
           rdf:resource="http://purl.org/dc/dcmitype/StillImage" />
        <dc:title></dc:title>
      </cc:Work>
    </rdf:RDF>
  </metadata>
  <defs
     id="defs6" />
  <sodipodi:namedview
     pagecolor="#ffffff"
     bordercolor="#666666"
     borderopacity="1"
     objecttolerance="10"
     gridtolerance="10"
     guidetolerance="10"
     inkscape:pageopacity="0"
     inkscape:pageshadow="2"
     inkscape:window-width="1280"
     inkscape:window-height="658"
     id="namedview4"
     showgrid="false"
     inkscape:zoom="0.11739269"
     inkscape:cx="4791.6101"
     inkscape:cy="643.31183"
     inkscape:window-x="-8"
     inkscape:window-y="-8"
     inkscape:window-maximized="1"
     inkscape:current-layer="layer9"
     showguides="true"
     inkscape:guide-bbox="true"
     fit-margin-top="0"
     fit-margin-left="0"
     fit-margin-right="0"
     fit-margin-bottom="0" />
  <g
     inkscape:groupmode="layer"
     id="layer10"
     inkscape:label="dez"
     transform="translate(-150.79856,-318.22414)"
     sodipodi:insensitive="true">
    <path
       style="fill:#ffffff;stroke:none"
       d="m 8230.145,450.64501 c -2.0384,0.0275 -4.0938,0.16354 -6.1993,0.26991 -135.3299,195.12911 -103.8673,354.82704 -64.1522,449.60501 l -128.4397,-12.53368 c -172.3732,-13.2035 -329.4493,69.00525 -217.5245,209.30355 31.2303,40.3461 69.595,77.3239 122.2398,107.6841 142.3204,65.1539 354.969,134.9088 536.5338,47.7099 -50.7874,10.2376 -101.2025,22.1133 -159.572,2.0215 87.4252,-8.898 174.1676,-19.3574 242.4582,-70.3513 l 109.8402,6.1991 c 79.2264,94.7328 219.0345,149.7893 399.739,178.1712 476.2413,58.8532 -194.3179,-492.53303 62.1303,-451.62681 75.4884,-23.09501 159.4381,-4.32328 242.4582,10.24252 -29.4868,15.02196 -46.047,35.37133 -62.1306,55.93131 26.242,-26.74923 52.4658,-29.14473 78.7079,-28.97641 -72.1067,24.17649 -118.0681,66.61449 -151.2165,118.06189 7.0941,57.2628 65.7391,120.1352 68.3305,128.4391 170.8111,73.5899 260.2495,56.1206 321.166,145.1516 l -62.1308,26.8196 c 18.3641,18.4051 2.7997,32.6127 -20.7552,45.6887 l -101.4846,10.2425 41.3755,14.5554 c -52.6377,3.1058 -106.1115,2.3496 -151.2161,39.3542 29.3099,-1.5168 69.0421,-21.848 80.7296,8.3561 -153.1698,-4.6575 -213.7473,53.5206 -271.2996,113.8838 253.4573,-69.3465 636.79,8.5209 590.4438,-147.0382 l -22.7769,-93.2633 c -28.6964,-78.4104 -134.9726,-120.5638 -192.7265,-142.9949 -211.5676,-70.2207 -188.9583,-84.5425 -142.9948,-93.2634 49.3168,-39.7674 125.572,-52.6006 192.726,-74.5303 -5.7549,-42.6182 -31.3171,-76.72948 -64.2869,-107.68392 l -30.9978,-6.19985 -39.3539,-47.70959 -28.9762,8.35559 c -71.8912,-33.16586 -149.2818,-39.66704 -225.8808,-49.73114 l -87.0643,14.4207 c -72.0278,17.45405 -120.6816,45.11343 -49.7311,124.39602 123.9119,148.47029 223.6872,272.21849 -43.3972,283.69889 -104.5047,-4.5434 -177.9289,-50.3429 -230.0586,-124.2616 81.6984,0.9013 142.1818,-19.4783 192.7262,-49.7314 73.4342,-175.02451 -394.8625,-434.12582 -372.9187,-20.6203 8.3665,-12.2783 5.5447,-34.5378 26.9548,-35.311 l 18.5987,51.8882 c -32.6671,9.6091 -69.1723,1.0893 -107.6846,-16.5772 l -10.3772,-24.9334 -20.755,16.5772 c -16.9921,20.8414 -33.0415,42.0964 -28.9762,72.5086 23.7072,-9.818 37.395,-2.8904 43.5316,16.5771 -51.933,17.4727 -104.1016,25.0954 -156.4725,25.0679 -136.7469,-266.35278 -139.6111,-516.46926 -27.8979,-656.88706 2.8323,-41.35139 -28.0476,-77.8283 -91.2419,-76.95566 z m -226.6891,553.24579 c 73.2349,0.039 180.7241,46.5514 217.2552,166.4457 -93.8285,-19.8596 -188.1513,-58.6898 -282.6207,-104.1802 -22.4768,-38.211 12.5323,-62.2928 65.3655,-62.2655 z m 752.8454,2.83 c 1.7704,-0.039 3.4861,0.1012 5.2566,0.4045 10.2936,16.2815 -13.2746,55.8567 -42.454,61.1874 -14.6391,-23.8289 10.6429,-61.0344 37.1974,-61.5919 z"
       id="path3802"
       inkscape:connector-curvature="0" />
  </g>
  <g
     inkscape:groupmode="layer"
     id="layer9"
     inkscape:label="n2"
     transform="translate(-150.79856,-318.22414)"
     sodipodi:insensitive="true">
    <path
       style="fill:#ffffff;stroke:none"
       d="m 7312.3791,1259.0709 c -29.2472,-116.4951 14.0312,-179.698 11.4147,-270.5535 l 35.2881,167.0311 95.2785,67.0472 c 56.7321,-23.3895 123.1651,-67.2191 154.0915,-123.5082 48.0714,104.1317 119.8201,211.8864 202.3194,312.8888 23.6206,2.7813 43.8177,-9.844 61.1662,-35.2884 -49.8293,-170.4223 -150.6923,-413.97475 -237.6075,-421.1062 -23.5659,-4.19858 -6.8769,-15.71657 2.3526,-25.87824 -58.2651,11.67835 -113.6591,28.8034 -163.502,56.46121 2.3479,51.49943 -8.0438,75.93923 -44.6983,85.86813 -23.6792,-125.30851 -51.0479,-191.28909 -125.8614,-229.37342 -26.4455,12.28404 -29.2347,13.09557 -54.1088,23.52545 104.0506,53.52757 25.4465,304.85797 63.867,392.88607 z"
       id="path3799"
       inkscape:connector-curvature="0"
       sodipodi:nodetypes="cccccccccccccc" />
  </g>
  <g
     inkscape:groupmode="layer"
     id="layer8"
     inkscape:label="n"
     transform="translate(-150.79856,-318.22414)"
     sodipodi:insensitive="true">
    <path
       style="fill:#ffffff;stroke:none"
       d="m 5996.5922,954.81504 c 40.5567,34.59059 77.5966,27.96602 108.4619,2.1267 23.0205,5.79225 43.5332,15.97405 55.2945,41.47082 l 22.3304,-8.50679 c 38.6111,-187.05581 348.3009,-291.85092 463.6224,7.44338 22.763,82.60415 35.6412,174.26935 90.3852,227.55785 l -13.8241,17.0137 -38.2803,-21.2671 c 6.6267,14.7065 5.874,30.1047 35.0905,39.3441 l -18.0771,23.3937 c -58.4844,-5.1747 -61.6742,-85.3532 -92.5115,-61.6746 -7.4764,-16.4974 -19.5568,-24.443 -31.9008,-31.9006 l 1.0633,-14.8869 27.6472,8.507 -6.3801,-18.0772 -21.2671,-2.1267 1.0635,-8.5068 17.0133,-2.1268 -3.1897,-15.9503 c -7.5077,-34.9416 -24.17,-28.1357 -38.2808,-32.9639 -4.565,-91.598 -30.4753,-176.62822 -108.4621,-245.63476 l -82.9416,7.44348 -10.6336,-11.69688 c -44.6671,15.7608 -109.1827,91.86203 -74.4347,161.62976 l -14.8871,26.5839 -1.0634,53.1677 -6.3801,6.3801 17.0137,57.4211 -12.7605,-4.2534 -4.2532,21.267 13.8236,-3.19 15.9505,76.5616 -61.6748,25.5204 c -34.9541,-29.1333 -52.4311,-67.005 -64.8644,-107.3987 l -10.6338,-9.5703 -7.4434,10.6335 -32.9637,-26.5838 c 32.2961,-60.436 -14.7271,-108.5538 -92.5121,-152.05953 -11.1272,-7.7722 -18.8658,-21.03832 -19.14,-35.09073 z"
       id="path3793"
       inkscape:connector-curvature="0"
       sodipodi:nodetypes="ccccccccccccccccccccccccccccccccccccccc" />
  </g>
  <g
     inkscape:groupmode="layer"
     id="layer7"
     inkscape:label="r"
     transform="translate(-150.79856,-318.22414)"
     sodipodi:insensitive="true">
    <path
       style="fill:#ffffff;stroke:none"
       d="m 5659.6199,876.82273 c -59.6513,-174.86922 230.2821,-0.49857 349.0087,-79.6711 78.3682,-41.83782 1.6431,-66.87527 7.7201,85.76095 -27.9007,-217.97155 123.2482,-116.71653 12.7012,-40.51681 -74.2317,42.37615 -119.9083,16.03323 -160.8174,48.87143 -108.2763,99.73631 76.9468,167.2027 109.1772,354.9857 l -19.8621,22.5103 c -25.8048,-28.5778 -55.5564,-29.5274 -84.744,-34.427 -97.769,-143.3444 -250.2217,-429.75194 -270.1042,-250.93415 -76.9249,-43.95874 -19.7118,-169.60887 56.9205,-106.57932 z"
       id="path3790"
       inkscape:connector-curvature="0"
       sodipodi:nodetypes="cccccccccc" />
  </g>
  <g
     inkscape:groupmode="layer"
     id="layer5"
     inkscape:label="e"
     transform="translate(-150.79856,-318.22414)"
     sodipodi:insensitive="true">
    <path
       style="fill:#ffffff;stroke:none"
       d="m 5151.81,774.28245 c -120.7595,-2.62048 -218.2935,61.4128 -170.0645,247.46415 l -270.0512,-41.13224 -8.121,81.53814 c 87.1774,-0.1555 249.3001,0.6085 298.2855,47.0505 182.8248,181.2731 573.5775,213.4006 729.2829,121.2179 l 4.4898,-38.251 c -90.5104,75.639 -355.2729,25.1672 -489.1814,-62.8538 451.2365,-102.6038 135.9008,-350.03099 -94.6401,-355.03365 z m 36.9939,118.70373 c 88.4395,-0.39544 179.6073,38.38143 120.4992,112.95712 -66.96,21.5903 -175.6,50.1864 -224.2975,8.9792 -70.2865,-81.96869 15.3589,-121.54089 103.7983,-121.93632 z"
       id="path3773"
       inkscape:connector-curvature="0"
       sodipodi:nodetypes="scccccccssccs" />
  </g>
  <g
     inkscape:groupmode="layer"
     id="layer4"
     inkscape:label="H"
     transform="translate(-150.79856,-318.22414)"
     sodipodi:insensitive="true">
    <path
       style="fill:#ffffff;stroke:none"
       d="m 3867.3756,661.87296 c 88.8188,44.40528 170.4533,160.3819 220.2216,312.83819 l 284.0241,-6.17443 -12.349,39.10468 c 45.8864,-7.80156 77.5884,-20.33115 90.5584,-39.10468 l 57.6282,-14.407 c -27.5369,-95.02291 -37.6303,-180.07841 -26.7557,-253.15196 l -26.7561,-10.29077 10.2906,-16.46515 -12.3485,-137.89576 c 66.9253,-6.00621 122.1645,68.70834 129.6629,185.23312 17.3581,80.91243 20.726,135.59391 57.6281,253.15195 136.8163,10.71699 161.7971,7.47411 346.6299,33.95225 -23.0252,53.4983 246.0286,146.3467 -69.6899,91.346 -95.3383,-16.6213 -159.7572,-15.6481 -239.7635,-13.5911 l 71.9053,209.3636 c -10.571,41.6487 -29.9089,77.0354 -59.686,104.9655 -66.6446,-76.4457 -145.0478,-126.4347 -222.2799,-179.0586 96.9798,24.3396 180.9307,96.3403 125.5467,-16.4653 l -41.1628,-109.0817 -321.0707,-6.1745 c -166.7354,-6.276 -71.5835,60.8839 53.5116,84.3839 -38.4185,2.1065 -76.8372,4.6404 -115.256,4.1163 16.2008,61.5694 -27.1696,231.6312 100.8491,18.5234 -5.9292,216.9529 -136.4116,341.6091 -193.4657,168.768 -19.2002,-70.6539 -34.6494,-175.6322 -57.628,-211.989 l -32.9303,-6.1744 -22.6398,-47.3374 30.8723,-22.6397 C 3973.8294,911.05451 3853.8933,743.861 3867.3756,661.87296 Z"
       id="path3770"
       inkscape:connector-curvature="0"
       sodipodi:nodetypes="cccccccccccccccccccccccccccccc" />
  </g>
  <g
     inkscape:groupmode="layer"
     id="layer3"
     inkscape:label="ime"
     transform="translate(-150.79856,-318.22414)"
     sodipodi:insensitive="true">
    <g
       id="g3763"
       transform="matrix(5.612186,0,0,5.612186,17738.434,11086.128)"
       style="fill:#ffffff">
      <path
         sodipodi:nodetypes="cccccc"
         inkscape:connector-curvature="0"
         id="path3756"
         d="m -2860.4123,-1816.5268 c 4.2274,-9.9868 8.5737,-5.4304 7.8553,2.8367 0.476,16.6892 0.6275,36.4715 12.6555,54.9864 v 3.0547 c 5.0487,12.6804 -5.9375,10.9591 -10.4735,5.2369 -14.6074,-19.979 -14.9116,-50.5027 -10.0373,-66.1147 z"
         style="fill:#ffffff;stroke:none" />
      <path
         id="path3758"
         d="m -2878.3125,-1877.375 c -5.5123,0.183 -10.3488,3.3868 -13.8437,10.6875 4.2253,1.2688 10.5829,0.9985 3.875,10.2187 4.9513,7.7552 11.4422,15.7733 21.9687,18.375 -17.7688,-16.2673 -4.424,-40.4477 19.3125,-4.875 18.4281,25.9539 33.1534,68.0912 50,96.4063 -0.1115,9.2347 0.3497,10.2614 -1,16.8125 5.9367,1.9783 9.5982,4.4147 12.9688,6.9062 l -10.2188,-3.0312 c 21.8172,17.932 34.3551,21.3126 20.7188,-2.5 -1.8525,-14.2682 -2.2854,-26.7822 0.5312,-35.3438 l -4.6875,-4.9687 7.4687,0.8437 -4.6874,-3.875 5.2187,-0.8124 -3.0313,-2.2188 2.7813,-0.2812 c -2.9609,-13.0292 0.4975,-10.6542 6.875,-1.375 11.1524,16.4338 22.0543,32.8923 43.3437,48.3124 -0.093,-2.1629 -0.3596,-4.38 3.5938,-5.5312 -0.4645,-21.5674 4.8325,-49.3522 10.5,-77.5625 0.9347,-11.3789 10.4241,-13.1549 9.6562,-1.125 26.4891,69.2421 46.4059,93.5863 84.4688,70.4063 39.6393,21.9121 85.1505,13.9594 93.3438,7.4687 -34.8144,-2.5199 -61.7304,-11.2853 -82.5626,-24.8437 5.1297,-17.4937 5.3586,-43.1616 1.6563,-75.375 l 4.9687,-3.3126 -2.75,-0.5624 0.2813,-1.6563 4.125,-0.5625 -2.4687,-2.4688 -14.6563,-0.2812 c -19.1222,14.0432 -32.2942,39.0748 -30.9063,57.4375 1.5681,11.1849 3.5083,17.8879 8.8438,24.8437 -23.0298,7.3334 -45.0991,-33.7771 -54.125,-64.875 -4.9114,-3.0079 -8.792,-5.5313 -12.6875,-8.0312 -13.3899,2.5921 -7.4324,14.1819 -9.6875,21.9375 -14.8779,47.2874 -13.0425,65.6931 -45.5312,14.5313 -3.6984,-8.8153 -9.6823,-2.3393 -11.5938,-11.3438 -2.4862,3.3168 -4.8813,6.4302 -6.3438,7.1875 -3.4137,0.1496 -2.203,-2.3329 -2.2187,-4.125 l -2.5,5.7813 3.3125,0.8437 c -2.025,2.9805 -5.851,1.5859 -10.4688,-1.6563 -1.9816,14.4831 -3.9865,28.9543 -8.8437,44.1563 -12.643,-20.1293 -18.564,-37.8558 -27.875,-57.6875 -8.8834,-25.8023 -37.4382,-63.5287 -57.125,-62.875 z m 267.7187,59.1875 c 0.7978,16.4543 -0.9211,29.6253 -5.8437,38.2813 -11.5803,-8.7316 -5.1535,-36.2125 5.8437,-38.2813 z"
         style="fill:#ffffff;stroke:none"
         inkscape:connector-curvature="0" />
    </g>
  </g>
  <g
     inkscape:groupmode="layer"
     id="layer2"
     inkscape:label="a"
     transform="translate(-150.79856,-318.22414)"
     sodipodi:insensitive="true">
    <path
       style="fill:#ffffff;stroke:none"
       d="m 6838.7715,797.22187 c -125.4707,-0.59785 -199.0981,66.32857 -300.0422,85.54516 l 77.1216,57.03979 c 71.631,-109.74525 416.6581,-108.87907 413.3263,26.58501 -82.1384,-0.11567 -150.3782,27.06177 -213.1474,66.11677 -39.5813,44.4647 -66.133,124.4642 16.1903,161.8654 63.2954,10.1488 154.4542,5.3727 215.9336,-23.7207 79.2229,97.7491 162.2607,168.3451 264.2786,197.7101 29.4407,-56.5976 19.8538,-77.168 -4.908,-131.5534 17.8563,192.6755 -189.3351,-52.8518 -175.8588,-116.6478 92.8921,-48.2915 60.8413,-205.31901 -36.4093,-260.32517 -114.9313,-45.91844 -195.2083,-62.3231 -256.4847,-62.61516 z m 146.114,253.86613 c -20.0056,17.8271 -39.2107,25.2901 -61.3183,23.9571 5.6687,-28.3647 48.1037,-33.7428 61.3183,-23.9571 z"
       id="path2985"
       inkscape:connector-curvature="0"
       sodipodi:nodetypes="sccccccccccsccc" />
    <path
       style="fill:#ffffff;stroke:none"
       d="m 1136.1701,1052.3656 c -110.7503,-128.44173 186.7657,-62.63309 198.7994,-6.9002 8.2189,63.7911 -3.2433,126.8247 -116.069,185.9598 -124.4035,70.526 123.0424,-207.2255 161.7496,-241.83186 41.2495,-43.4104 80.8056,-113.75154 107.8299,15.93436 43.4633,230.8317 123.809,384.8379 263.3394,522.9337 l 43.6817,-63.6508 c -39.8898,20.2531 -44.2603,-88.6181 -126.2967,-205.9384 -45.47,-78.4504 -91.1312,-156.8631 -104.1359,-241.8068 5.9213,-25.88682 -4.8989,-51.77409 -12.355,-77.66088 3.8191,26.24837 8.7747,53.91715 3.5299,68.83568 -18.7566,-30.26484 -17.6454,-51.40557 -23.8276,-75.89556 -6.8023,-22.03293 -17.0607,-41.2378 -49.4205,-42.36001 -22.1045,-7.69135 -91.8231,43.4839 -123.5505,81.19073 -91.0256,88.28154 -160.1545,175.86454 -205.6246,258.57394 -83.4557,155.9779 -21.8519,148.7999 81.191,116.4912 208.7454,-76.6065 238.5266,-297.9014 141.7678,-393.75566 l -79.2513,-38.0654 c 24.4722,-0.33579 38.0508,7.77533 58.6587,17.47289 -21.7375,-19.76031 -36.276,-28.95641 -79.8754,-29.95319 -223.6785,-75.70253 -329.23129,85.15942 -140.1409,150.42646 z"
       id="path3767"
       inkscape:connector-curvature="0"
       sodipodi:nodetypes="ccccccccccccccccccccc" />
  </g>
  <g
     inkscape:groupmode="layer"
     id="layer1"
     inkscape:label="J"
     transform="translate(-150.79856,-2638.2241)"
     sodipodi:insensitive="true">
    <path
       style="fill:#ffffff;fill-opacity:1;stroke:none"
       d="m 1281.7883,2850.0835 -102.3954,-13.0694 c -134.3311,25.6953 -269.35919,48.6017 -408.73076,54.1366 -55.42752,-22.3393 -94.71773,-66.1955 -135.34138,-108.2735 l 32.4819,78.4983 -43.30951,51.4294 -473.69459,83.9118 c 21.86532,25.721 57.28384,46.0205 129.92757,51.4297 l 384.00344,-70.3315 c 65.32513,222.9942 131.33338,439.6721 167.41124,605.7339 l -215.76815,-134.792 73.08473,-40.6026 c -76.86224,-0.1712 -145.58269,7.8045 -246.32131,-16.2408 l 5.41332,62.2572 c 151.67602,153.516 371.26049,249.3449 538.65886,351.8873 l 37.89574,-46.016 C 923.77429,3479.2972 853.48944,3214.0742 803.14403,2958.8213 l 376.38517,-57.1718 z"
       id="path2988"
       inkscape:connector-curvature="0"
       sodipodi:nodetypes="ccccccccccccccccccc" />
  </g>
  <path
     sodipodi:nodetypes="ccccccccccccccccccccc"
     inkscape:connector-curvature="0"
     id="path3792"
     d="m 7202.8886,176.75111 c -24.2902,-20.7505 -49.5041,-38.48594 -74.7245,-56.20214 -224.1962,-21.52723 -185.347,83.83327 -287.0608,148.05676 2.8317,-42.65883 3.8453,-84.63736 25.2241,-134.23696 16.375,-7.61168 33.2064,-14.35257 40.2716,-39.73982 -11.4615,-16.43972 -2.1166,-37.449 11.1752,-59.32516 l 11.1196,21.95916 12.7369,-16.37547 -6.3879,37.21769 20.0853,-62.65944 7.1451,19.09314 17.4997,-3.64657 -11.0031,40.39597 11.3079,-20.19416 -3.8106,-10.183 c 39.8803,-28.30056 100.5522,-60.5119 131.09,-25.83895 -25.4191,-10.8592727 -49.8963,-2.08623 -51.3911,17.78069 l 17.648,12.26042 c 36.2876,-9.3912 78.0758,-34.501 87.6248,32.50973 l 24.9579,24.03628 c 15.6529,44.42243 13.3481,54.55502 16.4919,75.09183 z"
     style="display:inline;fill:#ffffff;stroke:none" />
</svg>
