<?xml version="1.0" encoding="UTF-8" standalone="no"?>
<!-- Created with Inkscape (http://www.inkscape.org/) -->

<svg
   xmlns:dc="http://purl.org/dc/elements/1.1/"
   xmlns:cc="http://creativecommons.org/ns#"
   xmlns:rdf="http://www.w3.org/1999/02/22-rdf-syntax-ns#"
   xmlns:svg="http://www.w3.org/2000/svg"
   xmlns="http://www.w3.org/2000/svg"
   xmlns:sodipodi="http://sodipodi.sourceforge.net/DTD/sodipodi-0.dtd"
   xmlns:inkscape="http://www.inkscape.org/namespaces/inkscape"
   id="svg2"
   version="1.1"
   inkscape:version="0.92.3 (2405546, 2018-03-11)"
   width="5229.1382"
   height="2123.9534"
   sodipodi:docname="titulo.svg.svg"
   inkscape:export-filename="C:\Users\David\Dropbox\Third Eye Team\Archivo\Scans\trello.png"
   inkscape:export-xdpi="157.38342"
   inkscape:export-ydpi="157.38342">
  <metadata
     id="metadata8">
    <rdf:RDF>
      <cc:Work
         rdf:about="">
        <dc:format>image/svg+xml</dc:format>
        <dc:type
           rdf:resource="http://purl.org/dc/dcmitype/StillImage" />
        <dc:title></dc:title>
      </cc:Work>
    </rdf:RDF>
  </metadata>
  <defs
     id="defs6" />
  <sodipodi:namedview
     pagecolor="#ffffff"
     bordercolor="#666666"
     borderopacity="1"
     objecttolerance="10"
     gridtolerance="10"
     guidetolerance="10"
     inkscape:pageopacity="0"
     inkscape:pageshadow="2"
     inkscape:window-width="1280"
     inkscape:window-height="658"
     id="namedview4"
     showgrid="false"
     inkscape:zoom="0.21514061"
     inkscape:cx="2614.5692"
     inkscape:cy="1061.9767"
     inkscape:window-x="-8"
     inkscape:window-y="-8"
     inkscape:window-maximized="1"
     inkscape:current-layer="layer5"
     showguides="true"
     inkscape:guide-bbox="true"
     fit-margin-top="0"
     fit-margin-left="0"
     fit-margin-right="0"
     fit-margin-bottom="0" />
  <g
     inkscape:groupmode="layer"
     id="layer5"
     inkscape:label="o3"
     style="display:inline"
     transform="translate(-430.10273,-598.86139)"
     sodipodi:insensitive="true">
    <path
       style="fill:#ffffff;stroke:none"
       d="m 5361.6923,1331.6589 c -117.9601,-0.9326 -208.3358,102.7556 -268.0795,83.3345 l -62.4243,83.2579 c 26.8383,4.6847 33.88,25.868 37.4543,49.9394 -132.5657,190.0363 -31.2609,300.3522 222.5829,297.4916 l 164.3708,-10.3403 c 252.0819,-35.5122 229.5846,-219.6165 147.5205,-339.7716 -89.9675,-125.1127 -170.6488,-163.3517 -241.4247,-163.9115 z m 196.081,255.6716 c -15.6233,109.506 -117.7808,216.8452 -329.5847,126.5335 42.8481,-149.4341 252.7087,-87.0654 329.5847,-126.5335 z"
       id="path3004"
       inkscape:connector-curvature="0" />
  </g>
  <g
     inkscape:groupmode="layer"
     id="layer10"
     inkscape:label="ic"
     style="display:inline"
     transform="translate(-430.10273,-598.86139)"
     sodipodi:insensitive="true">
    <g
       id="g3790"
       transform="matrix(2.3704258,0,0,2.3704258,-11574.574,-3566.0549)"
       style="fill:#ffffff">
      <path
         sodipodi:nodetypes="cccccccccc"
         inkscape:connector-curvature="0"
         id="path3786"
         d="m 6662.0455,2116.2525 c 21.2887,8.23 45.5503,25.1384 58.8608,42.9423 l 21.3057,72.3546 c -3.1083,9.1539 -8.2583,21.654 -7.9573,28.9029 -4.0558,5.7016 -9.717,6.0523 -7.8021,17.7336 l -6.9246,-1.5523 0.1456,-15.1103 c -5.8904,6.9655 -13.7225,4.223 -22.8111,-4.8023 2.0625,-12.9535 0.1139,-18.7285 -7.147,-19.925 -18.3986,-53.4007 -24.5075,-77.6503 -27.67,-120.5435 z"
         style="fill:#ffffff;stroke:none" />
      <path
         sodipodi:nodetypes="cccccccccccc"
         inkscape:connector-curvature="0"
         id="path3788"
         d="m 6651.2403,1932.5631 19.2093,31.2152 c -69.9937,87.2184 236.651,166.7184 273.7334,99.6485 10.2932,0.6886 15.5493,0.5847 22.6655,-1.9038 l 8.1717,12.5384 c -2.3191,6.46 -4.9997,12.92 0.378,19.38 l 8.4041,2.4012 c -1.475,13.0669 -4.9738,38.8404 -14.407,45.5408 -277.6435,26.5902 -168.6192,141.1212 42.0204,99.73 l 34.817,8.4041 c -163.5136,82.5009 -436.9885,-22.2395 -196.3986,-152.3287 -257.2652,-35.313 -224.8693,-124.2468 -198.5938,-164.6257 z"
         style="fill:#ffffff;stroke:none" />
    </g>
  </g>
  <g
     inkscape:groupmode="layer"
     id="layer9"
     inkscape:label="g"
     style="display:inline"
     transform="translate(-430.10273,-598.86139)"
     sodipodi:insensitive="true">
    <path
       style="fill:#ffffff;stroke:none"
       d="m 3994.1289,1392.223 c -36.5272,30.2653 -73.6289,58.1961 -116.5827,62.7546 l 38.7704,54.6399 c -191.5038,36.7179 -416.9015,401.1823 105.493,395.2815 92.7381,188.9429 162.1267,517.2098 58.8773,550.816 -104.5342,12.1202 -303.4734,-70.1489 -221.6246,-329.1011 l -114.3287,83.1319 c -63.7907,690.7907 777.4214,689.8371 526.471,-38.1397 l -79.6151,-318.6418 c 21.545,-161.9556 -26.7537,-265.1312 -83.1318,-332.5271 -23.7885,-71.7353 -88.7875,-77.8272 -114.3288,-128.2142 z m -27.6808,277.1662 c 26.5575,49.6508 41.5284,96.977 44.9924,142.0091 -171.9702,63.0131 -183.5146,-141.7697 -44.9924,-142.0091 z"
       id="path3779"
       inkscape:connector-curvature="0"
       sodipodi:nodetypes="cccccccccccccc" />
  </g>
  <g
     inkscape:groupmode="layer"
     id="layer8"
     inkscape:label="o2"
     style="display:inline"
     transform="translate(-430.10273,-598.86139)"
     sodipodi:insensitive="true">
    <path
       style="fill:#ffffff;stroke:none"
       d="m 3305.5162,1392.3815 c -41.826,0.063 -87.5249,4.2287 -137.1685,13.1498 -198.6306,170.5423 -126.0501,460.1541 126.4846,553.7701 446.2861,146.2166 563.7187,-567.7531 10.6839,-566.9199 z m 87.7288,163.509 c -41.2516,-41.3679 -59.3925,-66.3588 -95.5597,-105.3989 258.739,-19.0574 191.2448,245.2742 154.5646,372.4394 -141.6618,57.1305 -233.5971,-19.1789 -234.1076,-64.6445 13.3007,-72.7439 107.8786,-179.7078 175.1027,-202.396 z"
       id="path3772"
       inkscape:connector-curvature="0"
       sodipodi:nodetypes="sccsccccc" />
  </g>
  <g
     inkscape:groupmode="layer"
     id="layer7"
     inkscape:label="l"
     style="display:inline"
     transform="translate(-430.10273,-598.86139)"
     sodipodi:insensitive="true">
    <path
       style="fill:#ffffff;stroke:none"
       d="m 2933.018,599.50929 c -38.1441,247.90944 -84.9885,458.09881 -158.9189,648.27151 l 87.3938,-194.8389 c -76.4681,512.9074 -170.2049,772.5658 236.447,959.4173 -255.1925,-356.5335 35.8904,-912.1137 -12.4287,-1278.01513 z"
       id="path3767"
       inkscape:connector-curvature="0"
       sodipodi:nodetypes="cccccc" />
  </g>
  <g
     inkscape:groupmode="layer"
     id="layer6"
     inkscape:label="o"
     style="display:inline"
     transform="translate(-430.10273,-598.86139)"
     sodipodi:insensitive="true">
    <path
       style="display:inline;fill:#ffffff;stroke:none"
       d="m 2449.0425,1270.5787 c -31.8286,39.8883 -68.6451,51.7041 -110.4031,35.7032 l -50.3543,79.5335 c 48.2604,32.659 21.6109,60.9116 -1.6407,89.3639 -146.1013,98.2468 -167.021,183.0905 -108.8168,306.9183 188.7309,219.0514 416.5204,151.6188 529.4343,69.8659 30.9941,-76.3598 47.523,-166.1888 27.6668,-263.0883 -69.8561,-73.5039 -63.9813,-83.1153 -107.8502,-138.1984 70.3975,-122.5321 1.9231,14.2383 -27.9369,-39.0975 -27.9427,-29.6391 -94.3936,-96.2383 -150.0991,-141.0006 z m 11.3999,256.5472 c 50.7554,54.6878 73.5753,127.845 73.1616,207.3225 14.2135,66.4604 -13.7211,108.0077 -123.47,75.2432 -92.4297,-28.6475 -111.9937,-96.0712 -71.3813,-154.8041 34.8242,-46.3896 104.9362,-94.0214 121.6897,-127.7616 z"
       id="path3761"
       inkscape:connector-curvature="0"
       sodipodi:nodetypes="ccccccccccccccc" />
  </g>
  <g
     inkscape:groupmode="layer"
     id="layer4"
     inkscape:label="t"
     style="display:inline"
     transform="translate(-430.10273,-598.86139)"
     sodipodi:insensitive="true">
    <path
       style="fill:#ffffff;stroke:none"
       d="m 2011.2705,685.11833 c -173.869,201.72121 -144.6233,445.24327 -175.6134,592.44037 -108.7554,-12.3151 -217.4344,-23.1052 -324.9599,-10.965 l -13.9486,54.9054 c 26.6379,46.3139 58.1226,98.2523 57.4337,112.8558 l 75.0444,5.9368 c 34.6271,-72.1603 135.8524,-23.0653 212.5884,-24.0686 38.8463,253.7985 106.0727,332.7284 157.6079,492.1369 l 54.6625,17.2211 14.9359,-156.8422 c -47.4934,-36.6125 -18.5169,-230.8628 -41.9965,-365.0895 115.3832,-8.8386 210.8279,-3.2683 264.1093,32.7721 41.6101,27.5744 73.7646,-25.9133 30.0685,-50.4177 -84.9575,-43.7505 -174.7225,-82.1388 -285.6733,-96.8958 8.4792,-157.7996 19.4104,-276.1737 31.2157,-376.10678 10.8408,-58.47595 39.2313,-104.56745 64.025,-153.19738 4.3299,-37.89145 14.7501,-67.59857 -5.9551,-118.12417 -16.6696,-51.69809 -40.0514,-59.99924 -70.3853,-6.00724 -7.6151,22.21919 -19.5696,40.76169 -43.1592,49.4459 z"
       id="path2989"
       inkscape:connector-curvature="0"
       sodipodi:nodetypes="ccccccccccccccccccc" />
  </g>
  <g
     inkscape:groupmode="layer"
     id="layer3"
     inkscape:label="a"
     style="display:inline"
     transform="translate(-430.10273,-598.86139)"
     sodipodi:insensitive="true">
    <path
       style="fill:#ffffff;stroke:none"
       d="m 1732.5215,1789.4713 -32.7323,88.8446 c -339.694,-12.3229 -355.9102,-413.8476 -512.0258,-259.5202 99.0259,206.8354 443.6706,-275.8382 49.0983,-198.7313 -87.2214,31.1339 -151.5251,29.103 -107.3338,104.7181 l -46.7603,26.5336 -105.42587,-154.6318 58.45037,-65.4646 c 565.4439,-97.9499 654.682,138.9913 528.392,385.7728 l -79.4924,79.4926 c -155.9552,113.5407 -395.7114,99.3706 -418.5053,-112.2248 -3.8352,-122.4699 165.2987,-236.9026 322.6466,-112.2249 127.1635,81.4245 148.9335,199.988 343.6885,217.4359 z"
       id="path3785"
       inkscape:connector-curvature="0"
       sodipodi:nodetypes="ccccccccccccc" />
  </g>
  <g
     inkscape:groupmode="layer"
     id="layer1"
     inkscape:label="P"
     style="display:inline"
     transform="translate(-430.10273,-598.86139)"
     sodipodi:insensitive="true">
    <path
       style="fill:#ffffff;stroke:none"
       d="m 535.15398,912.82707 c -15.16,34.61107 -37.11573,59.76344 -59.67042,101.12963 -19.76261,70.9312 -39.17208,144.8841 -34.57666,200.5561 -47.8291,287.7092 72.72978,430.6549 173.67701,556.1243 146.88243,119.468 198.09683,133.2015 185.96729,6.5855 13.9099,-156.878 -7.72438,-277.2255 15.74052,-378.4022 268.65568,47.8479 461.23488,-131.1824 471.16868,-370.5535 -15.3251,-44.26007 -21.9652,-59.6683 -33.076,-92.58407 C 1183.8707,731.20696 818.80301,558.89749 535.15398,912.82707 Z m 308.6187,-84.16943 c 258.61202,-64.612 363.71262,170.00746 224.13262,354.48976 -88.597,90.8027 -153.73397,132.2445 -249.82606,135.9054 -5.91648,-36.4311 -9.74259,-38.0292 -13.49156,-71.7974 -38.69914,-2.1965 -80.923,-34.9203 -99.8049,-52.2872 -12.84373,19.9306 -6.6012,10.2252 -17.0043,25.926 19.04793,2.5455 25.47113,40.0391 21.83426,74.9268 -19.73576,19.2418 -43.68506,58.5755 -86.42474,76.3615 56.95142,133.6395 66.38207,215.537 56.14643,245.3105 C 560.0161,1572.155 475.69942,1431.1316 584.14866,1128.5922 601.86931,980.57661 717.28941,879.72541 843.77268,828.65764 Z"
       id="path3760"
       inkscape:connector-curvature="0"
       sodipodi:nodetypes="cccccccccccccccccccc" />
  </g>
</svg>
